<svg id="svg" version="1.1" width="400" height="113.58024691358024" viewBox="0 0 400 113.58024691358024" xmlns="http://www.w3.org/2000/svg" xmlns:xlink="http://www.w3.org/1999/xlink" ><g id="svgg"><path id="path0" d="M38.500 0.667 L 38.500 1.333 36.292 1.336 C 33.634 1.339,33.608 1.352,33.500 2.702 L 33.417 3.750 31.178 3.797 C 28.523 3.852,28.500 3.865,28.500 5.270 L 28.500 6.333 26.343 6.333 C 23.813 6.333,23.667 6.422,23.667 7.954 L 23.667 8.833 22.617 8.833 C 21.304 8.833,21.167 8.970,21.167 10.283 L 21.167 11.333 19.492 11.333 C 17.213 11.333,16.333 11.885,16.333 13.316 C 16.333 13.588,16.176 13.662,15.395 13.760 C 14.213 13.908,13.908 14.210,13.762 15.375 C 13.648 16.293,13.647 16.294,12.979 16.401 C 11.955 16.564,11.574 17.057,11.437 18.397 C 11.310 19.637,10.227 21.065,9.314 21.194 C 8.942 21.246,8.913 21.328,8.868 22.458 L 8.819 23.667 7.753 23.667 C 6.409 23.667,6.434 23.621,6.333 26.250 L 6.250 28.417 5.256 28.468 C 3.908 28.537,3.833 28.627,3.833 30.187 C 3.833 31.220,3.782 31.500,3.593 31.500 C 2.913 31.500,1.833 32.535,1.833 33.186 C 1.833 33.280,1.721 33.470,1.583 33.607 C 1.386 33.805,1.333 34.328,1.333 36.095 L 1.333 38.333 0.667 38.333 L 0.000 38.333 0.000 56.833 L 0.000 75.333 0.667 75.333 L 1.333 75.333 1.346 77.625 C 1.367 81.660,1.591 82.291,3.065 82.457 L 3.833 82.543 3.835 83.730 C 3.839 86.117,4.396 87.233,5.687 87.439 L 6.333 87.543 6.333 88.670 C 6.333 89.972,6.364 90.000,7.821 90.000 L 8.782 90.000 8.887 91.834 C 9.033 94.385,9.309 94.825,10.769 94.831 L 11.288 94.833 11.376 95.932 C 11.483 97.266,11.574 97.368,12.744 97.465 L 13.667 97.541 13.667 98.437 C 13.667 99.655,14.012 100.000,15.230 100.000 L 16.127 100.000 16.199 100.996 C 16.287 102.223,16.247 102.185,17.565 102.291 L 18.648 102.377 18.761 103.282 C 18.922 104.569,19.203 104.715,21.688 104.804 L 23.667 104.874 23.667 105.904 C 23.667 107.178,23.815 107.333,25.033 107.333 C 25.977 107.333,26.000 107.344,26.001 107.792 C 26.004 109.527,26.495 109.831,29.292 109.832 L 31.000 109.833 31.001 110.292 C 31.004 112.039,31.488 112.331,34.375 112.332 L 36.167 112.333 36.167 112.917 L 36.167 113.500 57.000 113.500 L 77.833 113.500 77.833 112.917 L 77.833 112.333 79.885 112.333 C 82.415 112.333,82.530 112.271,82.633 110.856 L 82.707 109.833 84.853 109.833 C 87.456 109.833,87.667 109.717,87.667 108.275 L 87.667 107.383 89.462 107.289 C 91.960 107.157,92.425 106.886,92.537 105.500 L 92.583 104.917 93.628 104.817 C 94.914 104.694,94.887 104.723,94.970 103.410 L 95.039 102.333 96.006 102.333 C 97.460 102.333,97.500 102.299,97.500 101.066 L 97.500 100.000 98.550 100.000 C 99.863 100.000,100.000 99.863,100.000 98.550 L 100.000 97.500 100.988 97.500 C 102.278 97.500,102.500 97.281,102.500 96.008 L 102.500 95.040 103.502 94.968 C 104.762 94.876,104.885 94.747,104.970 93.416 C 105.028 92.496,105.085 92.333,105.349 92.333 C 106.830 92.333,107.333 91.545,107.333 89.225 L 107.333 87.667 108.218 87.667 C 109.682 87.667,109.741 87.565,109.805 84.930 L 109.859 82.667 110.763 82.667 C 112.228 82.667,112.333 82.472,112.333 79.766 L 112.333 77.531 113.174 77.416 C 114.611 77.218,114.833 76.395,114.833 71.263 L 114.833 67.709 115.491 67.604 C 117.266 67.320,117.327 66.968,117.324 57.083 C 117.321 47.295,117.234 46.724,115.687 46.273 L 114.917 46.049 114.833 42.399 L 114.750 38.750 114.049 37.727 C 113.598 37.069,113.171 36.643,112.853 36.532 L 112.359 36.360 112.304 33.998 C 112.240 31.220,112.119 31.000,110.648 31.000 L 109.833 31.000 109.824 29.208 C 109.809 26.452,109.580 26.060,107.958 26.017 L 107.333 26.000 107.333 24.833 L 107.333 23.667 106.167 23.667 L 105.000 23.667 104.996 22.208 C 104.989 19.607,104.672 18.972,103.276 18.763 L 102.539 18.652 102.467 17.657 C 102.378 16.421,102.246 16.289,101.021 16.200 L 100.037 16.129 99.966 15.146 C 99.877 13.919,99.746 13.789,98.502 13.699 L 97.500 13.627 97.498 12.938 C 97.493 11.706,97.234 11.429,95.996 11.333 L 94.917 11.250 94.866 10.375 C 94.799 9.210,94.447 9.027,92.001 8.887 L 90.167 8.782 90.167 7.758 C 90.167 6.458,90.033 6.333,88.633 6.333 C 87.530 6.333,87.500 6.322,87.500 5.908 C 87.500 4.561,86.592 3.994,84.240 3.874 L 82.539 3.787 82.395 2.935 C 82.172 1.627,81.681 1.445,78.125 1.361 L 75.333 1.295 75.333 0.647 L 75.333 0.000 56.917 0.000 L 38.500 0.000 38.500 0.667 M195.833 13.847 C 194.942 14.019,194.397 14.567,194.233 15.459 C 194.102 16.171,193.935 16.327,193.300 16.331 C 191.636 16.340,191.583 16.573,191.583 23.952 C 191.583 31.023,191.498 30.622,193.038 30.781 L 193.962 30.876 194.039 31.799 C 194.155 33.204,194.396 33.333,196.893 33.334 L 198.917 33.335 199.167 34.114 C 199.819 36.144,202.970 36.212,203.554 34.208 L 203.784 33.417 206.006 33.370 C 208.642 33.315,208.667 33.301,208.667 31.896 L 208.667 30.833 209.717 30.833 C 211.075 30.833,211.165 30.725,211.173 29.092 L 211.179 27.750 211.798 27.319 C 213.881 25.867,214.042 21.862,212.041 21.280 L 211.250 21.049 211.167 18.768 C 211.071 16.150,211.085 16.173,209.625 16.169 L 208.667 16.167 208.667 15.250 C 208.667 13.598,208.936 13.664,202.292 13.685 C 199.152 13.695,196.246 13.768,195.833 13.847 M258.367 13.867 C 258.254 13.980,258.167 14.521,258.167 15.109 L 258.167 16.152 256.958 16.201 C 255.878 16.245,255.745 16.287,255.700 16.599 C 255.671 16.800,255.380 17.100,255.012 17.306 C 254.655 17.507,254.283 17.885,254.167 18.166 C 254.053 18.441,253.859 18.667,253.736 18.667 C 253.247 18.667,253.167 19.353,253.167 23.517 C 253.167 29.584,253.309 30.149,254.945 30.566 C 255.709 30.761,255.755 30.804,255.842 31.427 C 256.046 32.871,256.547 33.151,259.229 33.315 L 260.896 33.417 261.042 33.980 C 261.408 35.398,262.009 35.650,264.612 35.482 C 266.440 35.364,266.899 35.127,267.412 34.034 L 267.741 33.333 268.959 33.333 C 269.871 33.333,270.201 33.272,270.270 33.091 C 270.321 32.958,270.687 32.692,271.083 32.500 C 271.619 32.241,271.868 31.989,272.058 31.514 C 272.199 31.164,272.430 30.832,272.573 30.777 C 272.774 30.700,272.833 30.415,272.833 29.525 L 272.833 28.373 273.856 28.299 C 275.396 28.188,275.357 28.319,275.299 23.464 C 275.243 18.735,275.287 18.873,273.776 18.717 L 272.833 18.620 272.833 17.593 C 272.833 16.306,272.692 16.167,271.383 16.167 L 270.333 16.167 270.333 15.179 C 270.333 13.582,270.676 13.667,264.188 13.667 C 260.038 13.667,258.514 13.719,258.367 13.867 M312.704 13.863 C 312.547 14.019,312.493 16.896,312.468 26.242 C 312.451 32.938,312.411 37.967,312.379 37.417 C 312.299 36.038,312.224 36.000,309.551 36.000 L 307.333 36.000 307.333 35.578 C 307.333 34.735,306.918 34.083,306.231 33.848 C 305.384 33.556,297.199 33.387,296.145 33.638 C 294.322 34.074,294.060 34.176,293.700 34.593 C 293.490 34.837,293.276 35.243,293.226 35.496 L 293.134 35.955 290.789 36.039 C 288.124 36.135,288.113 36.140,287.932 37.503 L 287.822 38.333 286.839 38.333 C 285.551 38.333,285.333 38.552,285.333 39.845 L 285.333 40.833 284.345 40.833 C 283.056 40.833,282.833 41.053,282.833 42.322 L 282.833 43.287 281.890 43.384 C 280.486 43.529,280.426 43.638,280.362 46.172 L 280.307 48.333 279.862 48.335 C 277.825 48.344,277.985 47.262,277.980 61.058 C 277.976 73.666,277.880 72.833,279.339 72.833 L 280.333 72.833 280.333 75.077 C 280.333 77.671,280.331 77.667,281.906 77.667 L 282.833 77.667 282.833 78.717 C 282.833 80.030,282.970 80.167,284.283 80.167 L 285.333 80.167 285.333 81.217 C 285.333 82.526,285.472 82.667,286.764 82.667 L 287.795 82.667 287.907 83.566 C 288.082 84.963,288.285 85.072,290.843 85.142 L 292.985 85.200 293.170 85.761 C 293.720 87.427,294.967 87.704,301.600 87.636 C 307.533 87.576,307.291 87.636,307.367 86.194 L 307.417 85.250 309.656 85.203 C 312.310 85.148,312.333 85.135,312.333 83.730 C 312.333 82.491,312.583 82.308,312.712 83.453 C 312.906 85.179,313.122 85.211,323.953 85.136 C 330.924 85.087,331.511 85.061,331.786 84.786 C 332.250 84.322,332.249 14.511,331.786 14.048 C 331.405 13.666,313.078 13.489,312.704 13.863 M341.004 13.834 C 340.264 14.012,339.901 14.466,339.763 15.390 L 339.652 16.126 338.820 16.236 C 337.137 16.459,337.131 16.487,337.199 24.367 C 337.257 31.088,337.168 30.693,338.646 30.800 L 339.629 30.871 339.700 31.854 C 339.800 33.232,339.818 33.241,342.508 33.304 L 344.833 33.359 344.833 33.907 C 344.833 36.098,348.748 36.264,349.074 34.086 L 349.187 33.333 351.498 33.333 C 354.264 33.333,354.333 33.297,354.333 31.821 L 354.333 30.833 355.292 30.831 C 356.804 30.827,356.738 30.983,356.833 27.131 C 356.953 22.290,356.802 16.734,356.544 16.477 C 356.431 16.364,355.896 16.240,355.355 16.200 L 354.372 16.129 354.296 15.223 C 354.168 13.673,354.528 13.754,347.619 13.722 C 344.299 13.707,341.323 13.758,341.004 13.834 M242.043 33.656 C 241.226 33.860,241.032 34.106,240.908 35.095 L 240.795 36.000 238.659 36.000 C 236.114 36.000,236.011 36.056,235.977 37.470 L 235.954 38.417 235.836 37.372 C 235.770 36.798,235.662 36.273,235.595 36.206 C 235.390 36.001,216.880 35.963,216.499 36.167 C 216.032 36.417,215.967 84.443,216.433 84.909 C 216.794 85.270,235.171 85.229,235.533 84.867 C 235.707 84.693,235.759 81.762,235.794 70.075 L 235.839 55.500 236.824 55.500 C 238.116 55.500,238.333 55.282,238.333 53.988 L 238.333 53.000 240.875 52.965 C 242.273 52.945,245.254 52.954,247.500 52.985 C 251.063 53.034,252.756 52.922,253.032 52.619 C 253.050 52.599,253.109 49.921,253.164 46.667 C 253.222 43.180,253.277 49.462,253.296 61.958 C 253.334 86.399,253.171 84.330,255.101 84.916 C 256.186 85.245,272.308 85.292,272.633 84.967 C 272.787 84.813,272.833 79.145,272.833 60.470 L 272.833 36.173 272.455 36.078 C 272.247 36.026,268.215 36.006,263.496 36.033 C 252.920 36.095,253.578 35.888,253.330 39.229 L 253.217 40.750 253.192 38.633 C 253.168 36.649,252.931 35.138,252.523 34.376 C 252.163 33.703,244.081 33.148,242.043 33.656 M376.498 33.669 C 374.791 33.934,374.339 34.361,374.334 35.708 C 374.333 35.971,374.120 36.000,372.208 36.002 C 369.291 36.005,369.359 35.977,369.299 37.226 L 369.250 38.250 367.222 38.336 C 364.801 38.440,364.578 38.565,364.409 39.917 L 364.299 40.801 363.525 40.917 C 362.034 41.140,361.836 41.535,361.834 44.276 L 361.833 45.969 360.929 46.253 C 359.588 46.675,359.583 46.697,359.583 52.287 C 359.583 57.677,359.569 57.621,361.049 57.788 L 361.802 57.873 361.859 60.097 C 361.926 62.698,361.983 62.804,363.378 62.948 L 364.308 63.044 364.415 63.822 C 364.594 65.124,365.041 65.331,367.687 65.332 L 369.290 65.333 369.399 66.153 C 369.615 67.779,369.486 67.738,374.610 67.833 L 379.083 67.917 379.171 68.790 C 379.307 70.145,379.468 70.232,382.047 70.346 C 383.657 70.417,382.872 70.451,379.132 70.471 L 374.015 70.500 373.966 69.292 L 373.917 68.083 370.450 68.038 C 367.528 68.000,366.943 68.033,366.730 68.247 C 366.590 68.386,366.350 68.500,366.196 68.501 C 365.806 68.502,364.833 69.451,364.833 69.830 C 364.833 70.002,364.724 70.252,364.591 70.385 C 364.439 70.537,364.331 71.051,364.300 71.772 L 364.250 72.917 363.083 73.000 L 361.917 73.083 361.868 74.201 L 361.818 75.318 360.701 75.368 L 359.583 75.417 359.538 78.679 C 359.482 82.778,359.318 82.540,362.259 82.638 L 364.333 82.707 364.333 83.603 C 364.333 85.068,364.521 85.167,367.316 85.167 C 369.762 85.167,369.833 85.190,369.833 85.985 C 369.833 87.328,371.107 87.556,378.986 87.624 C 388.140 87.703,388.418 87.657,388.611 86.032 L 388.713 85.167 391.148 85.161 C 393.025 85.157,393.658 85.100,393.907 84.911 C 394.085 84.777,394.352 84.667,394.501 84.667 C 394.868 84.667,395.618 83.857,395.839 83.222 C 396.014 82.719,396.055 82.701,397.174 82.638 C 398.578 82.559,398.709 82.441,398.801 81.169 L 398.873 80.167 399.437 80.167 L 400.000 80.167 400.000 69.273 L 400.000 58.380 399.125 58.275 C 398.644 58.217,397.819 58.169,397.292 58.168 L 396.333 58.167 396.333 57.104 C 396.333 55.698,396.310 55.685,393.656 55.630 L 391.417 55.583 391.332 54.632 C 391.206 53.216,391.324 53.257,387.189 53.200 L 383.561 53.149 383.353 52.575 C 383.136 51.974,382.239 51.167,381.790 51.167 C 381.646 51.167,381.498 51.079,381.463 50.971 C 381.426 50.860,380.864 50.727,380.157 50.662 C 379.307 50.585,380.111 50.541,382.708 50.524 L 386.500 50.500 386.500 51.550 C 386.500 53.037,386.411 53.000,390.044 53.000 C 393.866 53.000,393.833 53.012,393.833 51.577 L 393.833 50.500 394.982 50.500 C 396.301 50.500,396.333 50.466,396.333 49.070 L 396.333 48.167 397.321 48.167 C 398.616 48.167,398.833 47.950,398.833 46.655 L 398.833 45.667 399.417 45.667 L 400.000 45.667 400.000 42.107 L 400.000 38.547 398.976 38.440 C 398.412 38.382,397.598 38.333,397.166 38.333 L 396.380 38.333 396.283 37.393 C 396.144 36.047,396.273 36.090,392.242 36.027 L 388.667 35.971 388.667 35.507 C 388.667 34.467,388.477 34.025,387.939 33.813 C 387.310 33.565,377.929 33.447,376.498 33.669 M134.958 36.180 C 134.498 36.448,134.517 42.678,134.979 43.119 C 135.151 43.282,135.342 43.579,135.403 43.777 C 135.512 44.134,136.334 44.850,136.853 45.040 C 137.072 45.121,137.138 45.481,137.202 46.945 C 137.317 49.537,137.865 50.500,139.228 50.500 L 139.640 50.500 139.695 52.661 C 139.760 55.210,139.835 55.348,141.225 55.463 L 142.134 55.539 142.211 58.311 C 142.318 62.123,142.637 62.833,144.245 62.833 L 144.667 62.833 144.669 64.542 C 144.672 67.528,144.843 67.829,146.542 67.832 L 147.000 67.833 147.000 69.963 C 147.000 72.616,147.090 72.795,148.462 72.867 L 149.417 72.917 149.520 75.750 C 149.660 79.589,149.850 80.000,151.484 80.000 L 152.000 80.000 152.000 80.968 C 152.000 82.316,152.221 82.562,153.528 82.666 C 154.557 82.748,154.585 82.762,154.632 83.250 C 154.706 84.014,155.008 84.658,155.398 84.881 C 156.001 85.227,168.970 85.273,169.101 84.930 C 169.157 84.785,169.344 84.667,169.518 84.667 C 169.936 84.667,171.167 83.423,171.167 83.000 C 171.167 82.719,171.278 82.667,171.876 82.667 C 173.844 82.667,173.994 82.463,173.997 79.792 L 174.000 77.667 174.974 77.667 C 176.423 77.667,176.500 77.529,176.500 74.958 L 176.500 72.859 177.357 72.721 C 178.696 72.506,178.886 72.139,178.970 69.598 L 179.039 67.534 179.519 67.438 C 180.961 67.149,181.500 65.837,181.500 62.610 L 181.500 60.540 182.502 60.468 C 183.900 60.366,183.908 60.351,183.971 57.678 L 184.025 55.372 184.670 55.269 C 186.162 55.030,186.500 54.129,186.500 50.394 L 186.500 48.167 187.301 48.167 C 188.671 48.167,188.742 48.038,188.804 45.450 L 188.858 43.206 189.771 43.130 C 191.227 43.009,191.243 42.973,191.295 39.536 C 191.321 37.801,191.272 36.480,191.176 36.333 C 191.034 36.116,189.767 36.083,181.464 36.083 L 171.917 36.083 171.867 37.208 L 171.818 38.333 171.011 38.333 C 169.468 38.333,169.430 38.425,169.333 42.360 L 169.250 45.750 168.295 45.800 C 166.923 45.872,166.833 46.050,166.833 48.704 L 166.833 50.833 166.325 50.833 C 164.776 50.833,164.477 51.516,164.374 55.292 L 164.296 58.167 163.606 58.174 C 163.227 58.178,162.643 58.279,162.309 58.398 L 161.701 58.616 161.642 56.052 C 161.575 53.137,161.593 53.173,160.226 53.169 L 159.369 53.167 159.309 49.902 C 159.241 46.151,159.237 46.141,157.676 45.934 L 156.833 45.822 156.833 43.586 C 156.833 40.009,156.395 38.850,154.942 38.577 L 154.333 38.463 154.333 37.404 C 154.333 36.528,154.278 36.315,154.011 36.173 C 153.571 35.937,135.363 35.944,134.958 36.180 M192.295 36.119 C 191.483 36.242,191.493 35.923,191.539 60.979 C 191.581 83.289,191.599 84.503,191.881 84.786 C 192.252 85.157,210.498 85.348,210.935 84.985 C 211.362 84.631,211.272 36.402,210.844 36.173 C 210.534 36.007,193.361 35.957,192.295 36.119 M337.866 36.119 C 337.650 36.160,337.412 36.376,337.323 36.611 C 337.056 37.313,337.197 84.597,337.467 84.867 C 337.829 85.229,356.206 85.270,356.567 84.909 C 357.024 84.452,356.969 36.418,356.511 36.173 C 356.196 36.004,338.730 35.954,337.866 36.119 M43.797 41.412 C 43.997 42.159,44.842 42.833,45.577 42.833 C 45.795 42.833,45.833 43.173,45.833 45.130 C 45.833 47.455,45.998 48.153,46.551 48.174 C 46.661 48.178,47.098 48.497,47.523 48.882 L 48.296 49.583 48.366 52.039 C 48.449 54.939,48.583 55.213,50.010 55.402 L 50.833 55.511 50.833 57.809 C 50.833 61.175,51.257 62.274,52.674 62.585 L 53.167 62.693 53.167 64.941 C 53.167 67.343,53.290 67.833,53.895 67.833 C 54.141 67.833,54.469 68.071,54.813 68.500 L 55.349 69.167 56.819 69.167 C 58.386 69.167,59.015 68.907,59.251 68.162 C 59.323 67.937,59.504 67.833,59.827 67.833 C 60.458 67.833,60.500 67.666,60.500 65.153 L 60.500 63.000 61.385 63.000 C 62.857 63.000,62.908 62.909,62.971 60.180 C 63.022 57.980,63.046 57.833,63.351 57.833 C 64.985 57.833,65.382 56.996,65.469 53.375 L 65.538 50.500 66.250 50.500 C 67.668 50.500,67.718 50.373,67.802 46.523 L 67.876 43.167 68.696 43.167 C 69.845 43.167,70.333 42.672,70.333 41.508 L 70.333 40.667 75.375 40.698 C 78.148 40.716,79.967 40.756,79.417 40.788 C 78.038 40.868,78.000 40.944,78.000 43.603 L 78.000 45.809 77.093 45.923 C 75.737 46.092,75.635 46.276,75.537 48.706 C 75.452 50.819,75.388 50.993,74.701 50.997 C 73.576 51.005,73.000 52.657,73.000 55.881 L 73.000 58.127 71.978 58.201 C 70.557 58.303,70.500 58.411,70.500 61.017 L 70.500 63.137 69.834 63.250 C 68.479 63.479,68.005 64.537,68.002 67.343 L 68.000 68.936 67.272 69.718 C 66.871 70.148,66.436 70.500,66.305 70.500 C 65.760 70.500,65.667 70.883,65.667 73.117 L 65.667 75.333 64.958 75.336 C 63.542 75.340,63.167 75.725,63.167 77.172 L 63.167 77.793 62.164 77.866 C 60.918 77.956,60.789 78.085,60.699 79.331 L 60.627 80.333 56.897 80.333 L 53.167 80.333 53.167 79.345 C 53.167 78.050,52.950 77.833,51.655 77.833 L 50.667 77.833 50.667 76.783 C 50.667 75.473,50.528 75.333,49.229 75.333 L 48.192 75.333 48.138 72.088 C 48.074 68.311,48.044 68.235,46.533 68.056 L 45.667 67.954 45.664 65.935 C 45.662 63.525,45.591 63.196,45.047 63.059 C 44.820 63.002,44.309 62.640,43.912 62.254 L 43.190 61.552 43.120 59.901 C 42.999 57.055,42.664 56.299,41.408 56.039 L 40.750 55.902 40.667 53.497 C 40.572 50.765,40.520 50.674,39.042 50.669 L 38.333 50.667 38.333 48.528 C 38.333 44.925,37.920 43.854,36.424 43.574 L 35.857 43.467 35.803 42.067 L 35.750 40.666 39.674 40.666 L 43.598 40.667 43.797 41.412 M307.502 51.208 C 307.507 52.832,307.561 52.866,310.333 52.990 L 312.417 53.083 312.460 60.542 L 312.503 68.000 311.043 68.004 C 308.429 68.011,307.806 68.326,307.592 69.748 L 307.478 70.508 304.871 70.463 L 302.263 70.417 302.148 69.854 C 301.910 68.687,300.947 68.181,298.708 68.046 L 297.500 67.974 297.500 66.937 C 297.500 65.638,297.360 65.500,296.050 65.500 L 295.000 65.500 295.000 61.521 L 295.000 57.542 295.463 57.449 C 296.176 57.306,296.809 56.718,296.927 56.088 C 296.985 55.777,297.138 55.483,297.266 55.433 C 297.436 55.368,297.500 55.023,297.500 54.172 L 297.500 53.000 298.992 53.000 C 300.830 53.000,302.122 52.746,302.233 52.363 C 302.278 52.209,302.365 51.727,302.426 51.292 L 302.538 50.500 305.019 50.500 L 307.500 50.500 307.502 51.208 " stroke="none" fill="#ffffff" fill-rule="evenodd"></path><path id="path1" d="M38.500 0.667 L 38.500 1.333 36.292 1.336 C 33.634 1.339,33.608 1.352,33.500 2.702 L 33.417 3.750 31.178 3.797 C 28.523 3.852,28.500 3.865,28.500 5.270 L 28.500 6.333 26.343 6.333 C 23.813 6.333,23.667 6.422,23.667 7.954 L 23.667 8.833 22.617 8.833 C 21.304 8.833,21.167 8.970,21.167 10.283 L 21.167 11.333 19.492 11.333 C 17.213 11.333,16.333 11.885,16.333 13.316 C 16.333 13.588,16.176 13.662,15.395 13.760 C 14.213 13.908,13.908 14.210,13.762 15.375 C 13.648 16.293,13.647 16.294,12.979 16.401 C 11.955 16.564,11.574 17.057,11.437 18.397 C 11.310 19.637,10.227 21.065,9.314 21.194 C 8.942 21.246,8.913 21.328,8.868 22.458 L 8.819 23.667 7.753 23.667 C 6.409 23.667,6.434 23.621,6.333 26.250 L 6.250 28.417 5.256 28.468 C 3.908 28.537,3.833 28.627,3.833 30.187 C 3.833 31.220,3.782 31.500,3.593 31.500 C 2.913 31.500,1.833 32.535,1.833 33.186 C 1.833 33.280,1.721 33.470,1.583 33.607 C 1.386 33.805,1.333 34.328,1.333 36.095 L 1.333 38.333 0.667 38.333 L 0.000 38.333 0.000 56.833 L 0.000 75.333 0.667 75.333 L 1.333 75.333 1.346 77.625 C 1.367 81.660,1.591 82.291,3.065 82.457 L 3.833 82.543 3.835 83.730 C 3.839 86.117,4.396 87.233,5.687 87.439 L 6.333 87.543 6.333 88.670 C 6.333 89.972,6.364 90.000,7.821 90.000 L 8.782 90.000 8.887 91.834 C 9.033 94.385,9.309 94.825,10.769 94.831 L 11.288 94.833 11.376 95.932 C 11.483 97.266,11.574 97.368,12.744 97.465 L 13.667 97.541 13.667 98.437 C 13.667 99.655,14.012 100.000,15.230 100.000 L 16.127 100.000 16.199 100.996 C 16.287 102.223,16.247 102.185,17.565 102.291 L 18.648 102.377 18.761 103.282 C 18.922 104.569,19.203 104.715,21.688 104.804 L 23.667 104.874 23.667 105.904 C 23.667 107.178,23.815 107.333,25.033 107.333 C 25.977 107.333,26.000 107.344,26.001 107.792 C 26.004 109.527,26.495 109.831,29.292 109.832 L 31.000 109.833 31.001 110.292 C 31.004 112.039,31.488 112.331,34.375 112.332 L 36.167 112.333 36.167 112.917 L 36.167 113.500 57.000 113.500 L 77.833 113.500 77.833 112.917 L 77.833 112.333 79.885 112.333 C 82.415 112.333,82.530 112.271,82.633 110.856 L 82.707 109.833 84.853 109.833 C 87.456 109.833,87.667 109.717,87.667 108.275 L 87.667 107.383 89.462 107.289 C 91.960 107.157,92.425 106.886,92.537 105.500 L 92.583 104.917 93.628 104.817 C 94.914 104.694,94.887 104.723,94.970 103.410 L 95.039 102.333 96.006 102.333 C 97.460 102.333,97.500 102.299,97.500 101.066 L 97.500 100.000 98.550 100.000 C 99.863 100.000,100.000 99.863,100.000 98.550 L 100.000 97.500 100.988 97.500 C 102.278 97.500,102.500 97.281,102.500 96.008 L 102.500 95.040 103.502 94.968 C 104.762 94.876,104.885 94.747,104.970 93.416 C 105.028 92.496,105.085 92.333,105.349 92.333 C 106.830 92.333,107.333 91.545,107.333 89.225 L 107.333 87.667 108.218 87.667 C 109.682 87.667,109.741 87.565,109.805 84.930 L 109.859 82.667 110.763 82.667 C 112.228 82.667,112.333 82.472,112.333 79.766 L 112.333 77.531 113.174 77.416 C 114.611 77.218,114.833 76.395,114.833 71.263 L 114.833 67.709 115.491 67.604 C 117.266 67.320,117.327 66.968,117.324 57.083 C 117.321 47.295,117.234 46.724,115.687 46.273 L 114.917 46.049 114.833 42.399 L 114.750 38.750 114.049 37.727 C 113.598 37.069,113.171 36.643,112.853 36.532 L 112.359 36.360 112.304 33.998 C 112.240 31.220,112.119 31.000,110.648 31.000 L 109.833 31.000 109.824 29.208 C 109.809 26.452,109.580 26.060,107.958 26.017 L 107.333 26.000 107.333 24.833 L 107.333 23.667 106.167 23.667 L 105.000 23.667 104.996 22.208 C 104.989 19.607,104.672 18.972,103.276 18.763 L 102.539 18.652 102.467 17.657 C 102.378 16.421,102.246 16.289,101.021 16.200 L 100.037 16.129 99.966 15.146 C 99.877 13.919,99.746 13.789,98.502 13.699 L 97.500 13.627 97.498 12.938 C 97.493 11.706,97.234 11.429,95.996 11.333 L 94.917 11.250 94.866 10.375 C 94.799 9.210,94.447 9.027,92.001 8.887 L 90.167 8.782 90.167 7.758 C 90.167 6.458,90.033 6.333,88.633 6.333 C 87.530 6.333,87.500 6.322,87.500 5.908 C 87.500 4.561,86.592 3.994,84.240 3.874 L 82.539 3.787 82.395 2.935 C 82.172 1.627,81.681 1.445,78.125 1.361 L 75.333 1.295 75.333 0.647 L 75.333 0.000 56.917 0.000 L 38.500 0.000 38.500 0.667 M195.833 13.847 C 194.942 14.019,194.397 14.567,194.233 15.459 C 194.102 16.171,193.935 16.327,193.300 16.331 C 191.636 16.340,191.583 16.573,191.583 23.952 C 191.583 31.023,191.498 30.622,193.038 30.781 L 193.962 30.876 194.039 31.799 C 194.155 33.204,194.396 33.333,196.893 33.334 L 198.917 33.335 199.167 34.114 C 199.819 36.144,202.970 36.212,203.554 34.208 L 203.784 33.417 206.006 33.370 C 208.642 33.315,208.667 33.301,208.667 31.896 L 208.667 30.833 209.717 30.833 C 211.075 30.833,211.165 30.725,211.173 29.092 L 211.179 27.750 211.798 27.319 C 213.881 25.867,214.042 21.862,212.041 21.280 L 211.250 21.049 211.167 18.768 C 211.071 16.150,211.085 16.173,209.625 16.169 L 208.667 16.167 208.667 15.250 C 208.667 13.598,208.936 13.664,202.292 13.685 C 199.152 13.695,196.246 13.768,195.833 13.847 M258.367 13.867 C 258.254 13.980,258.167 14.521,258.167 15.109 L 258.167 16.152 256.958 16.201 C 255.878 16.245,255.745 16.287,255.700 16.599 C 255.671 16.800,255.380 17.100,255.012 17.306 C 254.655 17.507,254.283 17.885,254.167 18.166 C 254.053 18.441,253.859 18.667,253.736 18.667 C 253.247 18.667,253.167 19.353,253.167 23.517 C 253.167 29.584,253.309 30.149,254.945 30.566 C 255.709 30.761,255.755 30.804,255.842 31.427 C 256.046 32.871,256.547 33.151,259.229 33.315 L 260.896 33.417 261.042 33.980 C 261.408 35.398,262.009 35.650,264.612 35.482 C 266.440 35.364,266.899 35.127,267.412 34.034 L 267.741 33.333 268.959 33.333 C 269.871 33.333,270.201 33.272,270.270 33.091 C 270.321 32.958,270.687 32.692,271.083 32.500 C 271.619 32.241,271.868 31.989,272.058 31.514 C 272.199 31.164,272.430 30.832,272.573 30.777 C 272.774 30.700,272.833 30.415,272.833 29.525 L 272.833 28.373 273.856 28.299 C 275.396 28.188,275.357 28.319,275.299 23.464 C 275.243 18.735,275.287 18.873,273.776 18.717 L 272.833 18.620 272.833 17.593 C 272.833 16.306,272.692 16.167,271.383 16.167 L 270.333 16.167 270.333 15.179 C 270.333 13.582,270.676 13.667,264.188 13.667 C 260.038 13.667,258.514 13.719,258.367 13.867 M312.704 13.863 C 312.547 14.019,312.493 16.896,312.468 26.242 C 312.451 32.938,312.411 37.967,312.379 37.417 C 312.299 36.038,312.224 36.000,309.551 36.000 L 307.333 36.000 307.333 35.578 C 307.333 34.735,306.918 34.083,306.231 33.848 C 305.384 33.556,297.199 33.387,296.145 33.638 C 294.322 34.074,294.060 34.176,293.700 34.593 C 293.490 34.837,293.276 35.243,293.226 35.496 L 293.134 35.955 290.789 36.039 C 288.124 36.135,288.113 36.140,287.932 37.503 L 287.822 38.333 286.839 38.333 C 285.551 38.333,285.333 38.552,285.333 39.845 L 285.333 40.833 284.345 40.833 C 283.056 40.833,282.833 41.053,282.833 42.322 L 282.833 43.287 281.890 43.384 C 280.486 43.529,280.426 43.638,280.362 46.172 L 280.307 48.333 279.862 48.335 C 277.825 48.344,277.985 47.262,277.980 61.058 C 277.976 73.666,277.880 72.833,279.339 72.833 L 280.333 72.833 280.333 75.077 C 280.333 77.671,280.331 77.667,281.906 77.667 L 282.833 77.667 282.833 78.717 C 282.833 80.030,282.970 80.167,284.283 80.167 L 285.333 80.167 285.333 81.217 C 285.333 82.526,285.472 82.667,286.764 82.667 L 287.795 82.667 287.907 83.566 C 288.082 84.963,288.285 85.072,290.843 85.142 L 292.985 85.200 293.170 85.761 C 293.720 87.427,294.967 87.704,301.600 87.636 C 307.533 87.576,307.291 87.636,307.367 86.194 L 307.417 85.250 309.656 85.203 C 312.310 85.148,312.333 85.135,312.333 83.730 C 312.333 82.491,312.583 82.308,312.712 83.453 C 312.906 85.179,313.122 85.211,323.953 85.136 C 330.924 85.087,331.511 85.061,331.786 84.786 C 332.250 84.322,332.249 14.511,331.786 14.048 C 331.405 13.666,313.078 13.489,312.704 13.863 M341.004 13.834 C 340.264 14.012,339.901 14.466,339.763 15.390 L 339.652 16.126 338.820 16.236 C 337.137 16.459,337.131 16.487,337.199 24.367 C 337.257 31.088,337.168 30.693,338.646 30.800 L 339.629 30.871 339.700 31.854 C 339.800 33.232,339.818 33.241,342.508 33.304 L 344.833 33.359 344.833 33.907 C 344.833 36.098,348.748 36.264,349.074 34.086 L 349.187 33.333 351.498 33.333 C 354.264 33.333,354.333 33.297,354.333 31.821 L 354.333 30.833 355.292 30.831 C 356.804 30.827,356.738 30.983,356.833 27.131 C 356.953 22.290,356.802 16.734,356.544 16.477 C 356.431 16.364,355.896 16.240,355.355 16.200 L 354.372 16.129 354.296 15.223 C 354.168 13.673,354.528 13.754,347.619 13.722 C 344.299 13.707,341.323 13.758,341.004 13.834 M242.043 33.656 C 241.226 33.860,241.032 34.106,240.908 35.095 L 240.795 36.000 238.659 36.000 C 236.114 36.000,236.011 36.056,235.977 37.470 L 235.954 38.417 235.836 37.372 C 235.770 36.798,235.662 36.273,235.595 36.206 C 235.390 36.001,216.880 35.963,216.499 36.167 C 216.032 36.417,215.967 84.443,216.433 84.909 C 216.794 85.270,235.171 85.229,235.533 84.867 C 235.707 84.693,235.759 81.762,235.794 70.075 L 235.839 55.500 236.824 55.500 C 238.116 55.500,238.333 55.282,238.333 53.988 L 238.333 53.000 240.875 52.965 C 242.273 52.945,245.254 52.954,247.500 52.985 C 251.063 53.034,252.756 52.922,253.032 52.619 C 253.050 52.599,253.109 49.921,253.164 46.667 C 253.222 43.180,253.277 49.462,253.296 61.958 C 253.334 86.399,253.171 84.330,255.101 84.916 C 256.186 85.245,272.308 85.292,272.633 84.967 C 272.787 84.813,272.833 79.145,272.833 60.470 L 272.833 36.173 272.455 36.078 C 272.247 36.026,268.215 36.006,263.496 36.033 C 252.920 36.095,253.578 35.888,253.330 39.229 L 253.217 40.750 253.192 38.633 C 253.168 36.649,252.931 35.138,252.523 34.376 C 252.163 33.703,244.081 33.148,242.043 33.656 M376.498 33.669 C 374.791 33.934,374.339 34.361,374.334 35.708 C 374.333 35.971,374.120 36.000,372.208 36.002 C 369.291 36.005,369.359 35.977,369.299 37.226 L 369.250 38.250 367.222 38.336 C 364.801 38.440,364.578 38.565,364.409 39.917 L 364.299 40.801 363.525 40.917 C 362.034 41.140,361.836 41.535,361.834 44.276 L 361.833 45.969 360.929 46.253 C 359.588 46.675,359.583 46.697,359.583 52.287 C 359.583 57.677,359.569 57.621,361.049 57.788 L 361.802 57.873 361.859 60.097 C 361.926 62.698,361.983 62.804,363.378 62.948 L 364.308 63.044 364.415 63.822 C 364.594 65.124,365.041 65.331,367.687 65.332 L 369.290 65.333 369.399 66.153 C 369.615 67.779,369.486 67.738,374.610 67.833 L 379.083 67.917 379.171 68.790 C 379.307 70.145,379.468 70.232,382.047 70.346 C 383.657 70.417,382.872 70.451,379.132 70.471 L 374.015 70.500 373.966 69.292 L 373.917 68.083 370.450 68.038 C 367.528 68.000,366.943 68.033,366.730 68.247 C 366.590 68.386,366.350 68.500,366.196 68.501 C 365.806 68.502,364.833 69.451,364.833 69.830 C 364.833 70.002,364.724 70.252,364.591 70.385 C 364.439 70.537,364.331 71.051,364.300 71.772 L 364.250 72.917 363.083 73.000 L 361.917 73.083 361.868 74.201 L 361.818 75.318 360.701 75.368 L 359.583 75.417 359.538 78.679 C 359.482 82.778,359.318 82.540,362.259 82.638 L 364.333 82.707 364.333 83.603 C 364.333 85.068,364.521 85.167,367.316 85.167 C 369.762 85.167,369.833 85.190,369.833 85.985 C 369.833 87.328,371.107 87.556,378.986 87.624 C 388.140 87.703,388.418 87.657,388.611 86.032 L 388.713 85.167 391.148 85.161 C 393.025 85.157,393.658 85.100,393.907 84.911 C 394.085 84.777,394.352 84.667,394.501 84.667 C 394.868 84.667,395.618 83.857,395.839 83.222 C 396.014 82.719,396.055 82.701,397.174 82.638 C 398.578 82.559,398.709 82.441,398.801 81.169 L 398.873 80.167 399.437 80.167 L 400.000 80.167 400.000 69.273 L 400.000 58.380 399.125 58.275 C 398.644 58.217,397.819 58.169,397.292 58.168 L 396.333 58.167 396.333 57.104 C 396.333 55.698,396.310 55.685,393.656 55.630 L 391.417 55.583 391.332 54.632 C 391.206 53.216,391.324 53.257,387.189 53.200 L 383.561 53.149 383.353 52.575 C 383.136 51.974,382.239 51.167,381.790 51.167 C 381.646 51.167,381.498 51.079,381.463 50.971 C 381.426 50.860,380.864 50.727,380.157 50.662 C 379.307 50.585,380.111 50.541,382.708 50.524 L 386.500 50.500 386.500 51.550 C 386.500 53.037,386.411 53.000,390.044 53.000 C 393.866 53.000,393.833 53.012,393.833 51.577 L 393.833 50.500 394.982 50.500 C 396.301 50.500,396.333 50.466,396.333 49.070 L 396.333 48.167 397.321 48.167 C 398.616 48.167,398.833 47.950,398.833 46.655 L 398.833 45.667 399.417 45.667 L 400.000 45.667 400.000 42.107 L 400.000 38.547 398.976 38.440 C 398.412 38.382,397.598 38.333,397.166 38.333 L 396.380 38.333 396.283 37.393 C 396.144 36.047,396.273 36.090,392.242 36.027 L 388.667 35.971 388.667 35.507 C 388.667 34.467,388.477 34.025,387.939 33.813 C 387.310 33.565,377.929 33.447,376.498 33.669 M134.958 36.180 C 134.498 36.448,134.517 42.678,134.979 43.119 C 135.151 43.282,135.342 43.579,135.403 43.777 C 135.512 44.134,136.334 44.850,136.853 45.040 C 137.072 45.121,137.138 45.481,137.202 46.945 C 137.317 49.537,137.865 50.500,139.228 50.500 L 139.640 50.500 139.695 52.661 C 139.760 55.210,139.835 55.348,141.225 55.463 L 142.134 55.539 142.211 58.311 C 142.318 62.123,142.637 62.833,144.245 62.833 L 144.667 62.833 144.669 64.542 C 144.672 67.528,144.843 67.829,146.542 67.832 L 147.000 67.833 147.000 69.963 C 147.000 72.616,147.090 72.795,148.462 72.867 L 149.417 72.917 149.520 75.750 C 149.660 79.589,149.850 80.000,151.484 80.000 L 152.000 80.000 152.000 80.968 C 152.000 82.316,152.221 82.562,153.528 82.666 C 154.557 82.748,154.585 82.762,154.632 83.250 C 154.706 84.014,155.008 84.658,155.398 84.881 C 156.001 85.227,168.970 85.273,169.101 84.930 C 169.157 84.785,169.344 84.667,169.518 84.667 C 169.936 84.667,171.167 83.423,171.167 83.000 C 171.167 82.719,171.278 82.667,171.876 82.667 C 173.844 82.667,173.994 82.463,173.997 79.792 L 174.000 77.667 174.974 77.667 C 176.423 77.667,176.500 77.529,176.500 74.958 L 176.500 72.859 177.357 72.721 C 178.696 72.506,178.886 72.139,178.970 69.598 L 179.039 67.534 179.519 67.438 C 180.961 67.149,181.500 65.837,181.500 62.610 L 181.500 60.540 182.502 60.468 C 183.900 60.366,183.908 60.351,183.971 57.678 L 184.025 55.372 184.670 55.269 C 186.162 55.030,186.500 54.129,186.500 50.394 L 186.500 48.167 187.301 48.167 C 188.671 48.167,188.742 48.038,188.804 45.450 L 188.858 43.206 189.771 43.130 C 191.227 43.009,191.243 42.973,191.295 39.536 C 191.321 37.801,191.272 36.480,191.176 36.333 C 191.034 36.116,189.767 36.083,181.464 36.083 L 171.917 36.083 171.867 37.208 L 171.818 38.333 171.011 38.333 C 169.468 38.333,169.430 38.425,169.333 42.360 L 169.250 45.750 168.295 45.800 C 166.923 45.872,166.833 46.050,166.833 48.704 L 166.833 50.833 166.325 50.833 C 164.776 50.833,164.477 51.516,164.374 55.292 L 164.296 58.167 163.606 58.174 C 163.227 58.178,162.643 58.279,162.309 58.398 L 161.701 58.616 161.642 56.052 C 161.575 53.137,161.593 53.173,160.226 53.169 L 159.369 53.167 159.309 49.902 C 159.241 46.151,159.237 46.141,157.676 45.934 L 156.833 45.822 156.833 43.586 C 156.833 40.009,156.395 38.850,154.942 38.577 L 154.333 38.463 154.333 37.404 C 154.333 36.528,154.278 36.315,154.011 36.173 C 153.571 35.937,135.363 35.944,134.958 36.180 M192.295 36.119 C 191.483 36.242,191.493 35.923,191.539 60.979 C 191.581 83.289,191.599 84.503,191.881 84.786 C 192.252 85.157,210.498 85.348,210.935 84.985 C 211.362 84.631,211.272 36.402,210.844 36.173 C 210.534 36.007,193.361 35.957,192.295 36.119 M337.866 36.119 C 337.650 36.160,337.412 36.376,337.323 36.611 C 337.056 37.313,337.197 84.597,337.467 84.867 C 337.829 85.229,356.206 85.270,356.567 84.909 C 357.024 84.452,356.969 36.418,356.511 36.173 C 356.196 36.004,338.730 35.954,337.866 36.119 M43.797 41.412 C 43.997 42.159,44.842 42.833,45.577 42.833 C 45.795 42.833,45.833 43.173,45.833 45.130 C 45.833 47.455,45.998 48.153,46.551 48.174 C 46.661 48.178,47.098 48.497,47.523 48.882 L 48.296 49.583 48.366 52.039 C 48.449 54.939,48.583 55.213,50.010 55.402 L 50.833 55.511 50.833 57.809 C 50.833 61.175,51.257 62.274,52.674 62.585 L 53.167 62.693 53.167 64.941 C 53.167 67.343,53.290 67.833,53.895 67.833 C 54.141 67.833,54.469 68.071,54.813 68.500 L 55.349 69.167 56.819 69.167 C 58.386 69.167,59.015 68.907,59.251 68.162 C 59.323 67.937,59.504 67.833,59.827 67.833 C 60.458 67.833,60.500 67.666,60.500 65.153 L 60.500 63.000 61.385 63.000 C 62.857 63.000,62.908 62.909,62.971 60.180 C 63.022 57.980,63.046 57.833,63.351 57.833 C 64.985 57.833,65.382 56.996,65.469 53.375 L 65.538 50.500 66.250 50.500 C 67.668 50.500,67.718 50.373,67.802 46.523 L 67.876 43.167 68.696 43.167 C 69.845 43.167,70.333 42.672,70.333 41.508 L 70.333 40.667 75.375 40.698 C 78.148 40.716,79.967 40.756,79.417 40.788 C 78.038 40.868,78.000 40.944,78.000 43.603 L 78.000 45.809 77.093 45.923 C 75.737 46.092,75.635 46.276,75.537 48.706 C 75.452 50.819,75.388 50.993,74.701 50.997 C 73.576 51.005,73.000 52.657,73.000 55.881 L 73.000 58.127 71.978 58.201 C 70.557 58.303,70.500 58.411,70.500 61.017 L 70.500 63.137 69.834 63.250 C 68.479 63.479,68.005 64.537,68.002 67.343 L 68.000 68.936 67.272 69.718 C 66.871 70.148,66.436 70.500,66.305 70.500 C 65.760 70.500,65.667 70.883,65.667 73.117 L 65.667 75.333 64.958 75.336 C 63.542 75.340,63.167 75.725,63.167 77.172 L 63.167 77.793 62.164 77.866 C 60.918 77.956,60.789 78.085,60.699 79.331 L 60.627 80.333 56.897 80.333 L 53.167 80.333 53.167 79.345 C 53.167 78.050,52.950 77.833,51.655 77.833 L 50.667 77.833 50.667 76.783 C 50.667 75.473,50.528 75.333,49.229 75.333 L 48.192 75.333 48.138 72.088 C 48.074 68.311,48.044 68.235,46.533 68.056 L 45.667 67.954 45.664 65.935 C 45.662 63.525,45.591 63.196,45.047 63.059 C 44.820 63.002,44.309 62.640,43.912 62.254 L 43.190 61.552 43.120 59.901 C 42.999 57.055,42.664 56.299,41.408 56.039 L 40.750 55.902 40.667 53.497 C 40.572 50.765,40.520 50.674,39.042 50.669 L 38.333 50.667 38.333 48.528 C 38.333 44.925,37.920 43.854,36.424 43.574 L 35.857 43.467 35.803 42.067 L 35.750 40.666 39.674 40.666 L 43.598 40.667 43.797 41.412 M307.502 51.208 C 307.507 52.832,307.561 52.866,310.333 52.990 L 312.417 53.083 312.460 60.542 L 312.503 68.000 311.043 68.004 C 308.429 68.011,307.806 68.326,307.592 69.748 L 307.478 70.508 304.871 70.463 L 302.263 70.417 302.148 69.854 C 301.910 68.687,300.947 68.181,298.708 68.046 L 297.500 67.974 297.500 66.937 C 297.500 65.638,297.360 65.500,296.050 65.500 L 295.000 65.500 295.000 61.521 L 295.000 57.542 295.463 57.449 C 296.176 57.306,296.809 56.718,296.927 56.088 C 296.985 55.777,297.138 55.483,297.266 55.433 C 297.436 55.368,297.500 55.023,297.500 54.172 L 297.500 53.000 298.992 53.000 C 300.830 53.000,302.122 52.746,302.233 52.363 C 302.278 52.209,302.365 51.727,302.426 51.292 L 302.538 50.500 305.019 50.500 L 307.500 50.500 307.502 51.208 " stroke="none" fill="#ffffff" fill-rule="evenodd"></path><path id="path2" d="M38.500 0.667 L 38.500 1.333 36.292 1.336 C 33.634 1.339,33.608 1.352,33.500 2.702 L 33.417 3.750 31.178 3.797 C 28.523 3.852,28.500 3.865,28.500 5.270 L 28.500 6.333 26.343 6.333 C 23.813 6.333,23.667 6.422,23.667 7.954 L 23.667 8.833 22.617 8.833 C 21.304 8.833,21.167 8.970,21.167 10.283 L 21.167 11.333 19.492 11.333 C 17.213 11.333,16.333 11.885,16.333 13.316 C 16.333 13.588,16.176 13.662,15.395 13.760 C 14.213 13.908,13.908 14.210,13.762 15.375 C 13.648 16.293,13.647 16.294,12.979 16.401 C 11.955 16.564,11.574 17.057,11.437 18.397 C 11.310 19.637,10.227 21.065,9.314 21.194 C 8.942 21.246,8.913 21.328,8.868 22.458 L 8.819 23.667 7.753 23.667 C 6.409 23.667,6.434 23.621,6.333 26.250 L 6.250 28.417 5.256 28.468 C 3.908 28.537,3.833 28.627,3.833 30.187 C 3.833 31.220,3.782 31.500,3.593 31.500 C 2.913 31.500,1.833 32.535,1.833 33.186 C 1.833 33.280,1.721 33.470,1.583 33.607 C 1.386 33.805,1.333 34.328,1.333 36.095 L 1.333 38.333 0.667 38.333 L 0.000 38.333 0.000 56.833 L 0.000 75.333 0.667 75.333 L 1.333 75.333 1.346 77.625 C 1.367 81.660,1.591 82.291,3.065 82.457 L 3.833 82.543 3.835 83.730 C 3.839 86.117,4.396 87.233,5.687 87.439 L 6.333 87.543 6.333 88.670 C 6.333 89.972,6.364 90.000,7.821 90.000 L 8.782 90.000 8.887 91.834 C 9.033 94.385,9.309 94.825,10.769 94.831 L 11.288 94.833 11.376 95.932 C 11.483 97.266,11.574 97.368,12.744 97.465 L 13.667 97.541 13.667 98.437 C 13.667 99.655,14.012 100.000,15.230 100.000 L 16.127 100.000 16.199 100.996 C 16.287 102.223,16.247 102.185,17.565 102.291 L 18.648 102.377 18.761 103.282 C 18.922 104.569,19.203 104.715,21.688 104.804 L 23.667 104.874 23.667 105.904 C 23.667 107.178,23.815 107.333,25.033 107.333 C 25.977 107.333,26.000 107.344,26.001 107.792 C 26.004 109.527,26.495 109.831,29.292 109.832 L 31.000 109.833 31.001 110.292 C 31.004 112.039,31.488 112.331,34.375 112.332 L 36.167 112.333 36.167 112.917 L 36.167 113.500 57.000 113.500 L 77.833 113.500 77.833 112.917 L 77.833 112.333 79.885 112.333 C 82.415 112.333,82.530 112.271,82.633 110.856 L 82.707 109.833 84.853 109.833 C 87.456 109.833,87.667 109.717,87.667 108.275 L 87.667 107.383 89.462 107.289 C 91.960 107.157,92.425 106.886,92.537 105.500 L 92.583 104.917 93.628 104.817 C 94.914 104.694,94.887 104.723,94.970 103.410 L 95.039 102.333 96.006 102.333 C 97.460 102.333,97.500 102.299,97.500 101.066 L 97.500 100.000 98.550 100.000 C 99.863 100.000,100.000 99.863,100.000 98.550 L 100.000 97.500 100.988 97.500 C 102.278 97.500,102.500 97.281,102.500 96.008 L 102.500 95.040 103.502 94.968 C 104.762 94.876,104.885 94.747,104.970 93.416 C 105.028 92.496,105.085 92.333,105.349 92.333 C 106.830 92.333,107.333 91.545,107.333 89.225 L 107.333 87.667 108.218 87.667 C 109.682 87.667,109.741 87.565,109.805 84.930 L 109.859 82.667 110.763 82.667 C 112.228 82.667,112.333 82.472,112.333 79.766 L 112.333 77.531 113.174 77.416 C 114.611 77.218,114.833 76.395,114.833 71.263 L 114.833 67.709 115.491 67.604 C 117.266 67.320,117.327 66.968,117.324 57.083 C 117.321 47.295,117.234 46.724,115.687 46.273 L 114.917 46.049 114.833 42.399 L 114.750 38.750 114.049 37.727 C 113.598 37.069,113.171 36.643,112.853 36.532 L 112.359 36.360 112.304 33.998 C 112.240 31.220,112.119 31.000,110.648 31.000 L 109.833 31.000 109.824 29.208 C 109.809 26.452,109.580 26.060,107.958 26.017 L 107.333 26.000 107.333 24.833 L 107.333 23.667 106.167 23.667 L 105.000 23.667 104.996 22.208 C 104.989 19.607,104.672 18.972,103.276 18.763 L 102.539 18.652 102.467 17.657 C 102.378 16.421,102.246 16.289,101.021 16.200 L 100.037 16.129 99.966 15.146 C 99.877 13.919,99.746 13.789,98.502 13.699 L 97.500 13.627 97.498 12.938 C 97.493 11.706,97.234 11.429,95.996 11.333 L 94.917 11.250 94.866 10.375 C 94.799 9.210,94.447 9.027,92.001 8.887 L 90.167 8.782 90.167 7.758 C 90.167 6.458,90.033 6.333,88.633 6.333 C 87.530 6.333,87.500 6.322,87.500 5.908 C 87.500 4.561,86.592 3.994,84.240 3.874 L 82.539 3.787 82.395 2.935 C 82.172 1.627,81.681 1.445,78.125 1.361 L 75.333 1.295 75.333 0.647 L 75.333 0.000 56.917 0.000 L 38.500 0.000 38.500 0.667 M195.833 13.847 C 194.942 14.019,194.397 14.567,194.233 15.459 C 194.102 16.171,193.935 16.327,193.300 16.331 C 191.636 16.340,191.583 16.573,191.583 23.952 C 191.583 31.023,191.498 30.622,193.038 30.781 L 193.962 30.876 194.039 31.799 C 194.155 33.204,194.396 33.333,196.893 33.334 L 198.917 33.335 199.167 34.114 C 199.819 36.144,202.970 36.212,203.554 34.208 L 203.784 33.417 206.006 33.370 C 208.642 33.315,208.667 33.301,208.667 31.896 L 208.667 30.833 209.717 30.833 C 211.075 30.833,211.165 30.725,211.173 29.092 L 211.179 27.750 211.798 27.319 C 213.881 25.867,214.042 21.862,212.041 21.280 L 211.250 21.049 211.167 18.768 C 211.071 16.150,211.085 16.173,209.625 16.169 L 208.667 16.167 208.667 15.250 C 208.667 13.598,208.936 13.664,202.292 13.685 C 199.152 13.695,196.246 13.768,195.833 13.847 M258.367 13.867 C 258.254 13.980,258.167 14.521,258.167 15.109 L 258.167 16.152 256.958 16.201 C 255.878 16.245,255.745 16.287,255.700 16.599 C 255.671 16.800,255.380 17.100,255.012 17.306 C 254.655 17.507,254.283 17.885,254.167 18.166 C 254.053 18.441,253.859 18.667,253.736 18.667 C 253.247 18.667,253.167 19.353,253.167 23.517 C 253.167 29.584,253.309 30.149,254.945 30.566 C 255.709 30.761,255.755 30.804,255.842 31.427 C 256.046 32.871,256.547 33.151,259.229 33.315 L 260.896 33.417 261.042 33.980 C 261.408 35.398,262.009 35.650,264.612 35.482 C 266.440 35.364,266.899 35.127,267.412 34.034 L 267.741 33.333 268.959 33.333 C 269.871 33.333,270.201 33.272,270.270 33.091 C 270.321 32.958,270.687 32.692,271.083 32.500 C 271.619 32.241,271.868 31.989,272.058 31.514 C 272.199 31.164,272.430 30.832,272.573 30.777 C 272.774 30.700,272.833 30.415,272.833 29.525 L 272.833 28.373 273.856 28.299 C 275.396 28.188,275.357 28.319,275.299 23.464 C 275.243 18.735,275.287 18.873,273.776 18.717 L 272.833 18.620 272.833 17.593 C 272.833 16.306,272.692 16.167,271.383 16.167 L 270.333 16.167 270.333 15.179 C 270.333 13.582,270.676 13.667,264.188 13.667 C 260.038 13.667,258.514 13.719,258.367 13.867 M312.704 13.863 C 312.547 14.019,312.493 16.896,312.468 26.242 C 312.451 32.938,312.411 37.967,312.379 37.417 C 312.299 36.038,312.224 36.000,309.551 36.000 L 307.333 36.000 307.333 35.578 C 307.333 34.735,306.918 34.083,306.231 33.848 C 305.384 33.556,297.199 33.387,296.145 33.638 C 294.322 34.074,294.060 34.176,293.700 34.593 C 293.490 34.837,293.276 35.243,293.226 35.496 L 293.134 35.955 290.789 36.039 C 288.124 36.135,288.113 36.140,287.932 37.503 L 287.822 38.333 286.839 38.333 C 285.551 38.333,285.333 38.552,285.333 39.845 L 285.333 40.833 284.345 40.833 C 283.056 40.833,282.833 41.053,282.833 42.322 L 282.833 43.287 281.890 43.384 C 280.486 43.529,280.426 43.638,280.362 46.172 L 280.307 48.333 279.862 48.335 C 277.825 48.344,277.985 47.262,277.980 61.058 C 277.976 73.666,277.880 72.833,279.339 72.833 L 280.333 72.833 280.333 75.077 C 280.333 77.671,280.331 77.667,281.906 77.667 L 282.833 77.667 282.833 78.717 C 282.833 80.030,282.970 80.167,284.283 80.167 L 285.333 80.167 285.333 81.217 C 285.333 82.526,285.472 82.667,286.764 82.667 L 287.795 82.667 287.907 83.566 C 288.082 84.963,288.285 85.072,290.843 85.142 L 292.985 85.200 293.170 85.761 C 293.720 87.427,294.967 87.704,301.600 87.636 C 307.533 87.576,307.291 87.636,307.367 86.194 L 307.417 85.250 309.656 85.203 C 312.310 85.148,312.333 85.135,312.333 83.730 C 312.333 82.491,312.583 82.308,312.712 83.453 C 312.906 85.179,313.122 85.211,323.953 85.136 C 330.924 85.087,331.511 85.061,331.786 84.786 C 332.250 84.322,332.249 14.511,331.786 14.048 C 331.405 13.666,313.078 13.489,312.704 13.863 M341.004 13.834 C 340.264 14.012,339.901 14.466,339.763 15.390 L 339.652 16.126 338.820 16.236 C 337.137 16.459,337.131 16.487,337.199 24.367 C 337.257 31.088,337.168 30.693,338.646 30.800 L 339.629 30.871 339.700 31.854 C 339.800 33.232,339.818 33.241,342.508 33.304 L 344.833 33.359 344.833 33.907 C 344.833 36.098,348.748 36.264,349.074 34.086 L 349.187 33.333 351.498 33.333 C 354.264 33.333,354.333 33.297,354.333 31.821 L 354.333 30.833 355.292 30.831 C 356.804 30.827,356.738 30.983,356.833 27.131 C 356.953 22.290,356.802 16.734,356.544 16.477 C 356.431 16.364,355.896 16.240,355.355 16.200 L 354.372 16.129 354.296 15.223 C 354.168 13.673,354.528 13.754,347.619 13.722 C 344.299 13.707,341.323 13.758,341.004 13.834 M242.043 33.656 C 241.226 33.860,241.032 34.106,240.908 35.095 L 240.795 36.000 238.659 36.000 C 236.114 36.000,236.011 36.056,235.977 37.470 L 235.954 38.417 235.836 37.372 C 235.770 36.798,235.662 36.273,235.595 36.206 C 235.390 36.001,216.880 35.963,216.499 36.167 C 216.032 36.417,215.967 84.443,216.433 84.909 C 216.794 85.270,235.171 85.229,235.533 84.867 C 235.707 84.693,235.759 81.762,235.794 70.075 L 235.839 55.500 236.824 55.500 C 238.116 55.500,238.333 55.282,238.333 53.988 L 238.333 53.000 240.875 52.965 C 242.273 52.945,245.254 52.954,247.500 52.985 C 251.063 53.034,252.756 52.922,253.032 52.619 C 253.050 52.599,253.109 49.921,253.164 46.667 C 253.222 43.180,253.277 49.462,253.296 61.958 C 253.334 86.399,253.171 84.330,255.101 84.916 C 256.186 85.245,272.308 85.292,272.633 84.967 C 272.787 84.813,272.833 79.145,272.833 60.470 L 272.833 36.173 272.455 36.078 C 272.247 36.026,268.215 36.006,263.496 36.033 C 252.920 36.095,253.578 35.888,253.330 39.229 L 253.217 40.750 253.192 38.633 C 253.168 36.649,252.931 35.138,252.523 34.376 C 252.163 33.703,244.081 33.148,242.043 33.656 M376.498 33.669 C 374.791 33.934,374.339 34.361,374.334 35.708 C 374.333 35.971,374.120 36.000,372.208 36.002 C 369.291 36.005,369.359 35.977,369.299 37.226 L 369.250 38.250 367.222 38.336 C 364.801 38.440,364.578 38.565,364.409 39.917 L 364.299 40.801 363.525 40.917 C 362.034 41.140,361.836 41.535,361.834 44.276 L 361.833 45.969 360.929 46.253 C 359.588 46.675,359.583 46.697,359.583 52.287 C 359.583 57.677,359.569 57.621,361.049 57.788 L 361.802 57.873 361.859 60.097 C 361.926 62.698,361.983 62.804,363.378 62.948 L 364.308 63.044 364.415 63.822 C 364.594 65.124,365.041 65.331,367.687 65.332 L 369.290 65.333 369.399 66.153 C 369.615 67.779,369.486 67.738,374.610 67.833 L 379.083 67.917 379.171 68.790 C 379.307 70.145,379.468 70.232,382.047 70.346 C 383.657 70.417,382.872 70.451,379.132 70.471 L 374.015 70.500 373.966 69.292 L 373.917 68.083 370.450 68.038 C 367.528 68.000,366.943 68.033,366.730 68.247 C 366.590 68.386,366.350 68.500,366.196 68.501 C 365.806 68.502,364.833 69.451,364.833 69.830 C 364.833 70.002,364.724 70.252,364.591 70.385 C 364.439 70.537,364.331 71.051,364.300 71.772 L 364.250 72.917 363.083 73.000 L 361.917 73.083 361.868 74.201 L 361.818 75.318 360.701 75.368 L 359.583 75.417 359.538 78.679 C 359.482 82.778,359.318 82.540,362.259 82.638 L 364.333 82.707 364.333 83.603 C 364.333 85.068,364.521 85.167,367.316 85.167 C 369.762 85.167,369.833 85.190,369.833 85.985 C 369.833 87.328,371.107 87.556,378.986 87.624 C 388.140 87.703,388.418 87.657,388.611 86.032 L 388.713 85.167 391.148 85.161 C 393.025 85.157,393.658 85.100,393.907 84.911 C 394.085 84.777,394.352 84.667,394.501 84.667 C 394.868 84.667,395.618 83.857,395.839 83.222 C 396.014 82.719,396.055 82.701,397.174 82.638 C 398.578 82.559,398.709 82.441,398.801 81.169 L 398.873 80.167 399.437 80.167 L 400.000 80.167 400.000 69.273 L 400.000 58.380 399.125 58.275 C 398.644 58.217,397.819 58.169,397.292 58.168 L 396.333 58.167 396.333 57.104 C 396.333 55.698,396.310 55.685,393.656 55.630 L 391.417 55.583 391.332 54.632 C 391.206 53.216,391.324 53.257,387.189 53.200 L 383.561 53.149 383.353 52.575 C 383.136 51.974,382.239 51.167,381.790 51.167 C 381.646 51.167,381.498 51.079,381.463 50.971 C 381.426 50.860,380.864 50.727,380.157 50.662 C 379.307 50.585,380.111 50.541,382.708 50.524 L 386.500 50.500 386.500 51.550 C 386.500 53.037,386.411 53.000,390.044 53.000 C 393.866 53.000,393.833 53.012,393.833 51.577 L 393.833 50.500 394.982 50.500 C 396.301 50.500,396.333 50.466,396.333 49.070 L 396.333 48.167 397.321 48.167 C 398.616 48.167,398.833 47.950,398.833 46.655 L 398.833 45.667 399.417 45.667 L 400.000 45.667 400.000 42.107 L 400.000 38.547 398.976 38.440 C 398.412 38.382,397.598 38.333,397.166 38.333 L 396.380 38.333 396.283 37.393 C 396.144 36.047,396.273 36.090,392.242 36.027 L 388.667 35.971 388.667 35.507 C 388.667 34.467,388.477 34.025,387.939 33.813 C 387.310 33.565,377.929 33.447,376.498 33.669 M134.958 36.180 C 134.498 36.448,134.517 42.678,134.979 43.119 C 135.151 43.282,135.342 43.579,135.403 43.777 C 135.512 44.134,136.334 44.850,136.853 45.040 C 137.072 45.121,137.138 45.481,137.202 46.945 C 137.317 49.537,137.865 50.500,139.228 50.500 L 139.640 50.500 139.695 52.661 C 139.760 55.210,139.835 55.348,141.225 55.463 L 142.134 55.539 142.211 58.311 C 142.318 62.123,142.637 62.833,144.245 62.833 L 144.667 62.833 144.669 64.542 C 144.672 67.528,144.843 67.829,146.542 67.832 L 147.000 67.833 147.000 69.963 C 147.000 72.616,147.090 72.795,148.462 72.867 L 149.417 72.917 149.520 75.750 C 149.660 79.589,149.850 80.000,151.484 80.000 L 152.000 80.000 152.000 80.968 C 152.000 82.316,152.221 82.562,153.528 82.666 C 154.557 82.748,154.585 82.762,154.632 83.250 C 154.706 84.014,155.008 84.658,155.398 84.881 C 156.001 85.227,168.970 85.273,169.101 84.930 C 169.157 84.785,169.344 84.667,169.518 84.667 C 169.936 84.667,171.167 83.423,171.167 83.000 C 171.167 82.719,171.278 82.667,171.876 82.667 C 173.844 82.667,173.994 82.463,173.997 79.792 L 174.000 77.667 174.974 77.667 C 176.423 77.667,176.500 77.529,176.500 74.958 L 176.500 72.859 177.357 72.721 C 178.696 72.506,178.886 72.139,178.970 69.598 L 179.039 67.534 179.519 67.438 C 180.961 67.149,181.500 65.837,181.500 62.610 L 181.500 60.540 182.502 60.468 C 183.900 60.366,183.908 60.351,183.971 57.678 L 184.025 55.372 184.670 55.269 C 186.162 55.030,186.500 54.129,186.500 50.394 L 186.500 48.167 187.301 48.167 C 188.671 48.167,188.742 48.038,188.804 45.450 L 188.858 43.206 189.771 43.130 C 191.227 43.009,191.243 42.973,191.295 39.536 C 191.321 37.801,191.272 36.480,191.176 36.333 C 191.034 36.116,189.767 36.083,181.464 36.083 L 171.917 36.083 171.867 37.208 L 171.818 38.333 171.011 38.333 C 169.468 38.333,169.430 38.425,169.333 42.360 L 169.250 45.750 168.295 45.800 C 166.923 45.872,166.833 46.050,166.833 48.704 L 166.833 50.833 166.325 50.833 C 164.776 50.833,164.477 51.516,164.374 55.292 L 164.296 58.167 163.606 58.174 C 163.227 58.178,162.643 58.279,162.309 58.398 L 161.701 58.616 161.642 56.052 C 161.575 53.137,161.593 53.173,160.226 53.169 L 159.369 53.167 159.309 49.902 C 159.241 46.151,159.237 46.141,157.676 45.934 L 156.833 45.822 156.833 43.586 C 156.833 40.009,156.395 38.850,154.942 38.577 L 154.333 38.463 154.333 37.404 C 154.333 36.528,154.278 36.315,154.011 36.173 C 153.571 35.937,135.363 35.944,134.958 36.180 M192.295 36.119 C 191.483 36.242,191.493 35.923,191.539 60.979 C 191.581 83.289,191.599 84.503,191.881 84.786 C 192.252 85.157,210.498 85.348,210.935 84.985 C 211.362 84.631,211.272 36.402,210.844 36.173 C 210.534 36.007,193.361 35.957,192.295 36.119 M337.866 36.119 C 337.650 36.160,337.412 36.376,337.323 36.611 C 337.056 37.313,337.197 84.597,337.467 84.867 C 337.829 85.229,356.206 85.270,356.567 84.909 C 357.024 84.452,356.969 36.418,356.511 36.173 C 356.196 36.004,338.730 35.954,337.866 36.119 M43.797 41.412 C 43.997 42.159,44.842 42.833,45.577 42.833 C 45.795 42.833,45.833 43.173,45.833 45.130 C 45.833 47.455,45.998 48.153,46.551 48.174 C 46.661 48.178,47.098 48.497,47.523 48.882 L 48.296 49.583 48.366 52.039 C 48.449 54.939,48.583 55.213,50.010 55.402 L 50.833 55.511 50.833 57.809 C 50.833 61.175,51.257 62.274,52.674 62.585 L 53.167 62.693 53.167 64.941 C 53.167 67.343,53.290 67.833,53.895 67.833 C 54.141 67.833,54.469 68.071,54.813 68.500 L 55.349 69.167 56.819 69.167 C 58.386 69.167,59.015 68.907,59.251 68.162 C 59.323 67.937,59.504 67.833,59.827 67.833 C 60.458 67.833,60.500 67.666,60.500 65.153 L 60.500 63.000 61.385 63.000 C 62.857 63.000,62.908 62.909,62.971 60.180 C 63.022 57.980,63.046 57.833,63.351 57.833 C 64.985 57.833,65.382 56.996,65.469 53.375 L 65.538 50.500 66.250 50.500 C 67.668 50.500,67.718 50.373,67.802 46.523 L 67.876 43.167 68.696 43.167 C 69.845 43.167,70.333 42.672,70.333 41.508 L 70.333 40.667 75.375 40.698 C 78.148 40.716,79.967 40.756,79.417 40.788 C 78.038 40.868,78.000 40.944,78.000 43.603 L 78.000 45.809 77.093 45.923 C 75.737 46.092,75.635 46.276,75.537 48.706 C 75.452 50.819,75.388 50.993,74.701 50.997 C 73.576 51.005,73.000 52.657,73.000 55.881 L 73.000 58.127 71.978 58.201 C 70.557 58.303,70.500 58.411,70.500 61.017 L 70.500 63.137 69.834 63.250 C 68.479 63.479,68.005 64.537,68.002 67.343 L 68.000 68.936 67.272 69.718 C 66.871 70.148,66.436 70.500,66.305 70.500 C 65.760 70.500,65.667 70.883,65.667 73.117 L 65.667 75.333 64.958 75.336 C 63.542 75.340,63.167 75.725,63.167 77.172 L 63.167 77.793 62.164 77.866 C 60.918 77.956,60.789 78.085,60.699 79.331 L 60.627 80.333 56.897 80.333 L 53.167 80.333 53.167 79.345 C 53.167 78.050,52.950 77.833,51.655 77.833 L 50.667 77.833 50.667 76.783 C 50.667 75.473,50.528 75.333,49.229 75.333 L 48.192 75.333 48.138 72.088 C 48.074 68.311,48.044 68.235,46.533 68.056 L 45.667 67.954 45.664 65.935 C 45.662 63.525,45.591 63.196,45.047 63.059 C 44.820 63.002,44.309 62.640,43.912 62.254 L 43.190 61.552 43.120 59.901 C 42.999 57.055,42.664 56.299,41.408 56.039 L 40.750 55.902 40.667 53.497 C 40.572 50.765,40.520 50.674,39.042 50.669 L 38.333 50.667 38.333 48.528 C 38.333 44.925,37.920 43.854,36.424 43.574 L 35.857 43.467 35.803 42.067 L 35.750 40.666 39.674 40.666 L 43.598 40.667 43.797 41.412 M307.502 51.208 C 307.507 52.832,307.561 52.866,310.333 52.990 L 312.417 53.083 312.460 60.542 L 312.503 68.000 311.043 68.004 C 308.429 68.011,307.806 68.326,307.592 69.748 L 307.478 70.508 304.871 70.463 L 302.263 70.417 302.148 69.854 C 301.910 68.687,300.947 68.181,298.708 68.046 L 297.500 67.974 297.500 66.937 C 297.500 65.638,297.360 65.500,296.050 65.500 L 295.000 65.500 295.000 61.521 L 295.000 57.542 295.463 57.449 C 296.176 57.306,296.809 56.718,296.927 56.088 C 296.985 55.777,297.138 55.483,297.266 55.433 C 297.436 55.368,297.500 55.023,297.500 54.172 L 297.500 53.000 298.992 53.000 C 300.830 53.000,302.122 52.746,302.233 52.363 C 302.278 52.209,302.365 51.727,302.426 51.292 L 302.538 50.500 305.019 50.500 L 307.500 50.500 307.502 51.208 " stroke="none" fill="#ffffff" fill-rule="evenodd"></path><path id="path3" d="M38.500 0.667 L 38.500 1.333 36.292 1.336 C 33.634 1.339,33.608 1.352,33.500 2.702 L 33.417 3.750 31.178 3.797 C 28.523 3.852,28.500 3.865,28.500 5.270 L 28.500 6.333 26.343 6.333 C 23.813 6.333,23.667 6.422,23.667 7.954 L 23.667 8.833 22.617 8.833 C 21.304 8.833,21.167 8.970,21.167 10.283 L 21.167 11.333 19.492 11.333 C 17.213 11.333,16.333 11.885,16.333 13.316 C 16.333 13.588,16.176 13.662,15.395 13.760 C 14.213 13.908,13.908 14.210,13.762 15.375 C 13.648 16.293,13.647 16.294,12.979 16.401 C 11.955 16.564,11.574 17.057,11.437 18.397 C 11.310 19.637,10.227 21.065,9.314 21.194 C 8.942 21.246,8.913 21.328,8.868 22.458 L 8.819 23.667 7.753 23.667 C 6.409 23.667,6.434 23.621,6.333 26.250 L 6.250 28.417 5.256 28.468 C 3.908 28.537,3.833 28.627,3.833 30.187 C 3.833 31.220,3.782 31.500,3.593 31.500 C 2.913 31.500,1.833 32.535,1.833 33.186 C 1.833 33.280,1.721 33.470,1.583 33.607 C 1.386 33.805,1.333 34.328,1.333 36.095 L 1.333 38.333 0.667 38.333 L 0.000 38.333 0.000 56.833 L 0.000 75.333 0.667 75.333 L 1.333 75.333 1.346 77.625 C 1.367 81.660,1.591 82.291,3.065 82.457 L 3.833 82.543 3.835 83.730 C 3.839 86.117,4.396 87.233,5.687 87.439 L 6.333 87.543 6.333 88.670 C 6.333 89.972,6.364 90.000,7.821 90.000 L 8.782 90.000 8.887 91.834 C 9.033 94.385,9.309 94.825,10.769 94.831 L 11.288 94.833 11.376 95.932 C 11.483 97.266,11.574 97.368,12.744 97.465 L 13.667 97.541 13.667 98.437 C 13.667 99.655,14.012 100.000,15.230 100.000 L 16.127 100.000 16.199 100.996 C 16.287 102.223,16.247 102.185,17.565 102.291 L 18.648 102.377 18.761 103.282 C 18.922 104.569,19.203 104.715,21.688 104.804 L 23.667 104.874 23.667 105.904 C 23.667 107.178,23.815 107.333,25.033 107.333 C 25.977 107.333,26.000 107.344,26.001 107.792 C 26.004 109.527,26.495 109.831,29.292 109.832 L 31.000 109.833 31.001 110.292 C 31.004 112.039,31.488 112.331,34.375 112.332 L 36.167 112.333 36.167 112.917 L 36.167 113.500 57.000 113.500 L 77.833 113.500 77.833 112.917 L 77.833 112.333 79.885 112.333 C 82.415 112.333,82.530 112.271,82.633 110.856 L 82.707 109.833 84.853 109.833 C 87.456 109.833,87.667 109.717,87.667 108.275 L 87.667 107.383 89.462 107.289 C 91.960 107.157,92.425 106.886,92.537 105.500 L 92.583 104.917 93.628 104.817 C 94.914 104.694,94.887 104.723,94.970 103.410 L 95.039 102.333 96.006 102.333 C 97.460 102.333,97.500 102.299,97.500 101.066 L 97.500 100.000 98.550 100.000 C 99.863 100.000,100.000 99.863,100.000 98.550 L 100.000 97.500 100.988 97.500 C 102.278 97.500,102.500 97.281,102.500 96.008 L 102.500 95.040 103.502 94.968 C 104.762 94.876,104.885 94.747,104.970 93.416 C 105.028 92.496,105.085 92.333,105.349 92.333 C 106.830 92.333,107.333 91.545,107.333 89.225 L 107.333 87.667 108.218 87.667 C 109.682 87.667,109.741 87.565,109.805 84.930 L 109.859 82.667 110.763 82.667 C 112.228 82.667,112.333 82.472,112.333 79.766 L 112.333 77.531 113.174 77.416 C 114.611 77.218,114.833 76.395,114.833 71.263 L 114.833 67.709 115.491 67.604 C 117.266 67.320,117.327 66.968,117.324 57.083 C 117.321 47.295,117.234 46.724,115.687 46.273 L 114.917 46.049 114.833 42.399 L 114.750 38.750 114.049 37.727 C 113.598 37.069,113.171 36.643,112.853 36.532 L 112.359 36.360 112.304 33.998 C 112.240 31.220,112.119 31.000,110.648 31.000 L 109.833 31.000 109.824 29.208 C 109.809 26.452,109.580 26.060,107.958 26.017 L 107.333 26.000 107.333 24.833 L 107.333 23.667 106.167 23.667 L 105.000 23.667 104.996 22.208 C 104.989 19.607,104.672 18.972,103.276 18.763 L 102.539 18.652 102.467 17.657 C 102.378 16.421,102.246 16.289,101.021 16.200 L 100.037 16.129 99.966 15.146 C 99.877 13.919,99.746 13.789,98.502 13.699 L 97.500 13.627 97.498 12.938 C 97.493 11.706,97.234 11.429,95.996 11.333 L 94.917 11.250 94.866 10.375 C 94.799 9.210,94.447 9.027,92.001 8.887 L 90.167 8.782 90.167 7.758 C 90.167 6.458,90.033 6.333,88.633 6.333 C 87.530 6.333,87.500 6.322,87.500 5.908 C 87.500 4.561,86.592 3.994,84.240 3.874 L 82.539 3.787 82.395 2.935 C 82.172 1.627,81.681 1.445,78.125 1.361 L 75.333 1.295 75.333 0.647 L 75.333 0.000 56.917 0.000 L 38.500 0.000 38.500 0.667 M195.833 13.847 C 194.942 14.019,194.397 14.567,194.233 15.459 C 194.102 16.171,193.935 16.327,193.300 16.331 C 191.636 16.340,191.583 16.573,191.583 23.952 C 191.583 31.023,191.498 30.622,193.038 30.781 L 193.962 30.876 194.039 31.799 C 194.155 33.204,194.396 33.333,196.893 33.334 L 198.917 33.335 199.167 34.114 C 199.819 36.144,202.970 36.212,203.554 34.208 L 203.784 33.417 206.006 33.370 C 208.642 33.315,208.667 33.301,208.667 31.896 L 208.667 30.833 209.717 30.833 C 211.075 30.833,211.165 30.725,211.173 29.092 L 211.179 27.750 211.798 27.319 C 213.881 25.867,214.042 21.862,212.041 21.280 L 211.250 21.049 211.167 18.768 C 211.071 16.150,211.085 16.173,209.625 16.169 L 208.667 16.167 208.667 15.250 C 208.667 13.598,208.936 13.664,202.292 13.685 C 199.152 13.695,196.246 13.768,195.833 13.847 M258.367 13.867 C 258.254 13.980,258.167 14.521,258.167 15.109 L 258.167 16.152 256.958 16.201 C 255.878 16.245,255.745 16.287,255.700 16.599 C 255.671 16.800,255.380 17.100,255.012 17.306 C 254.655 17.507,254.283 17.885,254.167 18.166 C 254.053 18.441,253.859 18.667,253.736 18.667 C 253.247 18.667,253.167 19.353,253.167 23.517 C 253.167 29.584,253.309 30.149,254.945 30.566 C 255.709 30.761,255.755 30.804,255.842 31.427 C 256.046 32.871,256.547 33.151,259.229 33.315 L 260.896 33.417 261.042 33.980 C 261.408 35.398,262.009 35.650,264.612 35.482 C 266.440 35.364,266.899 35.127,267.412 34.034 L 267.741 33.333 268.959 33.333 C 269.871 33.333,270.201 33.272,270.270 33.091 C 270.321 32.958,270.687 32.692,271.083 32.500 C 271.619 32.241,271.868 31.989,272.058 31.514 C 272.199 31.164,272.430 30.832,272.573 30.777 C 272.774 30.700,272.833 30.415,272.833 29.525 L 272.833 28.373 273.856 28.299 C 275.396 28.188,275.357 28.319,275.299 23.464 C 275.243 18.735,275.287 18.873,273.776 18.717 L 272.833 18.620 272.833 17.593 C 272.833 16.306,272.692 16.167,271.383 16.167 L 270.333 16.167 270.333 15.179 C 270.333 13.582,270.676 13.667,264.188 13.667 C 260.038 13.667,258.514 13.719,258.367 13.867 M312.704 13.863 C 312.547 14.019,312.493 16.896,312.468 26.242 C 312.451 32.938,312.411 37.967,312.379 37.417 C 312.299 36.038,312.224 36.000,309.551 36.000 L 307.333 36.000 307.333 35.578 C 307.333 34.735,306.918 34.083,306.231 33.848 C 305.384 33.556,297.199 33.387,296.145 33.638 C 294.322 34.074,294.060 34.176,293.700 34.593 C 293.490 34.837,293.276 35.243,293.226 35.496 L 293.134 35.955 290.789 36.039 C 288.124 36.135,288.113 36.140,287.932 37.503 L 287.822 38.333 286.839 38.333 C 285.551 38.333,285.333 38.552,285.333 39.845 L 285.333 40.833 284.345 40.833 C 283.056 40.833,282.833 41.053,282.833 42.322 L 282.833 43.287 281.890 43.384 C 280.486 43.529,280.426 43.638,280.362 46.172 L 280.307 48.333 279.862 48.335 C 277.825 48.344,277.985 47.262,277.980 61.058 C 277.976 73.666,277.880 72.833,279.339 72.833 L 280.333 72.833 280.333 75.077 C 280.333 77.671,280.331 77.667,281.906 77.667 L 282.833 77.667 282.833 78.717 C 282.833 80.030,282.970 80.167,284.283 80.167 L 285.333 80.167 285.333 81.217 C 285.333 82.526,285.472 82.667,286.764 82.667 L 287.795 82.667 287.907 83.566 C 288.082 84.963,288.285 85.072,290.843 85.142 L 292.985 85.200 293.170 85.761 C 293.720 87.427,294.967 87.704,301.600 87.636 C 307.533 87.576,307.291 87.636,307.367 86.194 L 307.417 85.250 309.656 85.203 C 312.310 85.148,312.333 85.135,312.333 83.730 C 312.333 82.491,312.583 82.308,312.712 83.453 C 312.906 85.179,313.122 85.211,323.953 85.136 C 330.924 85.087,331.511 85.061,331.786 84.786 C 332.250 84.322,332.249 14.511,331.786 14.048 C 331.405 13.666,313.078 13.489,312.704 13.863 M341.004 13.834 C 340.264 14.012,339.901 14.466,339.763 15.390 L 339.652 16.126 338.820 16.236 C 337.137 16.459,337.131 16.487,337.199 24.367 C 337.257 31.088,337.168 30.693,338.646 30.800 L 339.629 30.871 339.700 31.854 C 339.800 33.232,339.818 33.241,342.508 33.304 L 344.833 33.359 344.833 33.907 C 344.833 36.098,348.748 36.264,349.074 34.086 L 349.187 33.333 351.498 33.333 C 354.264 33.333,354.333 33.297,354.333 31.821 L 354.333 30.833 355.292 30.831 C 356.804 30.827,356.738 30.983,356.833 27.131 C 356.953 22.290,356.802 16.734,356.544 16.477 C 356.431 16.364,355.896 16.240,355.355 16.200 L 354.372 16.129 354.296 15.223 C 354.168 13.673,354.528 13.754,347.619 13.722 C 344.299 13.707,341.323 13.758,341.004 13.834 M242.043 33.656 C 241.226 33.860,241.032 34.106,240.908 35.095 L 240.795 36.000 238.659 36.000 C 236.114 36.000,236.011 36.056,235.977 37.470 L 235.954 38.417 235.836 37.372 C 235.770 36.798,235.662 36.273,235.595 36.206 C 235.390 36.001,216.880 35.963,216.499 36.167 C 216.032 36.417,215.967 84.443,216.433 84.909 C 216.794 85.270,235.171 85.229,235.533 84.867 C 235.707 84.693,235.759 81.762,235.794 70.075 L 235.839 55.500 236.824 55.500 C 238.116 55.500,238.333 55.282,238.333 53.988 L 238.333 53.000 240.875 52.965 C 242.273 52.945,245.254 52.954,247.500 52.985 C 251.063 53.034,252.756 52.922,253.032 52.619 C 253.050 52.599,253.109 49.921,253.164 46.667 C 253.222 43.180,253.277 49.462,253.296 61.958 C 253.334 86.399,253.171 84.330,255.101 84.916 C 256.186 85.245,272.308 85.292,272.633 84.967 C 272.787 84.813,272.833 79.145,272.833 60.470 L 272.833 36.173 272.455 36.078 C 272.247 36.026,268.215 36.006,263.496 36.033 C 252.920 36.095,253.578 35.888,253.330 39.229 L 253.217 40.750 253.192 38.633 C 253.168 36.649,252.931 35.138,252.523 34.376 C 252.163 33.703,244.081 33.148,242.043 33.656 M376.498 33.669 C 374.791 33.934,374.339 34.361,374.334 35.708 C 374.333 35.971,374.120 36.000,372.208 36.002 C 369.291 36.005,369.359 35.977,369.299 37.226 L 369.250 38.250 367.222 38.336 C 364.801 38.440,364.578 38.565,364.409 39.917 L 364.299 40.801 363.525 40.917 C 362.034 41.140,361.836 41.535,361.834 44.276 L 361.833 45.969 360.929 46.253 C 359.588 46.675,359.583 46.697,359.583 52.287 C 359.583 57.677,359.569 57.621,361.049 57.788 L 361.802 57.873 361.859 60.097 C 361.926 62.698,361.983 62.804,363.378 62.948 L 364.308 63.044 364.415 63.822 C 364.594 65.124,365.041 65.331,367.687 65.332 L 369.290 65.333 369.399 66.153 C 369.615 67.779,369.486 67.738,374.610 67.833 L 379.083 67.917 379.171 68.790 C 379.307 70.145,379.468 70.232,382.047 70.346 C 383.657 70.417,382.872 70.451,379.132 70.471 L 374.015 70.500 373.966 69.292 L 373.917 68.083 370.450 68.038 C 367.528 68.000,366.943 68.033,366.730 68.247 C 366.590 68.386,366.350 68.500,366.196 68.501 C 365.806 68.502,364.833 69.451,364.833 69.830 C 364.833 70.002,364.724 70.252,364.591 70.385 C 364.439 70.537,364.331 71.051,364.300 71.772 L 364.250 72.917 363.083 73.000 L 361.917 73.083 361.868 74.201 L 361.818 75.318 360.701 75.368 L 359.583 75.417 359.538 78.679 C 359.482 82.778,359.318 82.540,362.259 82.638 L 364.333 82.707 364.333 83.603 C 364.333 85.068,364.521 85.167,367.316 85.167 C 369.762 85.167,369.833 85.190,369.833 85.985 C 369.833 87.328,371.107 87.556,378.986 87.624 C 388.140 87.703,388.418 87.657,388.611 86.032 L 388.713 85.167 391.148 85.161 C 393.025 85.157,393.658 85.100,393.907 84.911 C 394.085 84.777,394.352 84.667,394.501 84.667 C 394.868 84.667,395.618 83.857,395.839 83.222 C 396.014 82.719,396.055 82.701,397.174 82.638 C 398.578 82.559,398.709 82.441,398.801 81.169 L 398.873 80.167 399.437 80.167 L 400.000 80.167 400.000 69.273 L 400.000 58.380 399.125 58.275 C 398.644 58.217,397.819 58.169,397.292 58.168 L 396.333 58.167 396.333 57.104 C 396.333 55.698,396.310 55.685,393.656 55.630 L 391.417 55.583 391.332 54.632 C 391.206 53.216,391.324 53.257,387.189 53.200 L 383.561 53.149 383.353 52.575 C 383.136 51.974,382.239 51.167,381.790 51.167 C 381.646 51.167,381.498 51.079,381.463 50.971 C 381.426 50.860,380.864 50.727,380.157 50.662 C 379.307 50.585,380.111 50.541,382.708 50.524 L 386.500 50.500 386.500 51.550 C 386.500 53.037,386.411 53.000,390.044 53.000 C 393.866 53.000,393.833 53.012,393.833 51.577 L 393.833 50.500 394.982 50.500 C 396.301 50.500,396.333 50.466,396.333 49.070 L 396.333 48.167 397.321 48.167 C 398.616 48.167,398.833 47.950,398.833 46.655 L 398.833 45.667 399.417 45.667 L 400.000 45.667 400.000 42.107 L 400.000 38.547 398.976 38.440 C 398.412 38.382,397.598 38.333,397.166 38.333 L 396.380 38.333 396.283 37.393 C 396.144 36.047,396.273 36.090,392.242 36.027 L 388.667 35.971 388.667 35.507 C 388.667 34.467,388.477 34.025,387.939 33.813 C 387.310 33.565,377.929 33.447,376.498 33.669 M134.958 36.180 C 134.498 36.448,134.517 42.678,134.979 43.119 C 135.151 43.282,135.342 43.579,135.403 43.777 C 135.512 44.134,136.334 44.850,136.853 45.040 C 137.072 45.121,137.138 45.481,137.202 46.945 C 137.317 49.537,137.865 50.500,139.228 50.500 L 139.640 50.500 139.695 52.661 C 139.760 55.210,139.835 55.348,141.225 55.463 L 142.134 55.539 142.211 58.311 C 142.318 62.123,142.637 62.833,144.245 62.833 L 144.667 62.833 144.669 64.542 C 144.672 67.528,144.843 67.829,146.542 67.832 L 147.000 67.833 147.000 69.963 C 147.000 72.616,147.090 72.795,148.462 72.867 L 149.417 72.917 149.520 75.750 C 149.660 79.589,149.850 80.000,151.484 80.000 L 152.000 80.000 152.000 80.968 C 152.000 82.316,152.221 82.562,153.528 82.666 C 154.557 82.748,154.585 82.762,154.632 83.250 C 154.706 84.014,155.008 84.658,155.398 84.881 C 156.001 85.227,168.970 85.273,169.101 84.930 C 169.157 84.785,169.344 84.667,169.518 84.667 C 169.936 84.667,171.167 83.423,171.167 83.000 C 171.167 82.719,171.278 82.667,171.876 82.667 C 173.844 82.667,173.994 82.463,173.997 79.792 L 174.000 77.667 174.974 77.667 C 176.423 77.667,176.500 77.529,176.500 74.958 L 176.500 72.859 177.357 72.721 C 178.696 72.506,178.886 72.139,178.970 69.598 L 179.039 67.534 179.519 67.438 C 180.961 67.149,181.500 65.837,181.500 62.610 L 181.500 60.540 182.502 60.468 C 183.900 60.366,183.908 60.351,183.971 57.678 L 184.025 55.372 184.670 55.269 C 186.162 55.030,186.500 54.129,186.500 50.394 L 186.500 48.167 187.301 48.167 C 188.671 48.167,188.742 48.038,188.804 45.450 L 188.858 43.206 189.771 43.130 C 191.227 43.009,191.243 42.973,191.295 39.536 C 191.321 37.801,191.272 36.480,191.176 36.333 C 191.034 36.116,189.767 36.083,181.464 36.083 L 171.917 36.083 171.867 37.208 L 171.818 38.333 171.011 38.333 C 169.468 38.333,169.430 38.425,169.333 42.360 L 169.250 45.750 168.295 45.800 C 166.923 45.872,166.833 46.050,166.833 48.704 L 166.833 50.833 166.325 50.833 C 164.776 50.833,164.477 51.516,164.374 55.292 L 164.296 58.167 163.606 58.174 C 163.227 58.178,162.643 58.279,162.309 58.398 L 161.701 58.616 161.642 56.052 C 161.575 53.137,161.593 53.173,160.226 53.169 L 159.369 53.167 159.309 49.902 C 159.241 46.151,159.237 46.141,157.676 45.934 L 156.833 45.822 156.833 43.586 C 156.833 40.009,156.395 38.850,154.942 38.577 L 154.333 38.463 154.333 37.404 C 154.333 36.528,154.278 36.315,154.011 36.173 C 153.571 35.937,135.363 35.944,134.958 36.180 M192.295 36.119 C 191.483 36.242,191.493 35.923,191.539 60.979 C 191.581 83.289,191.599 84.503,191.881 84.786 C 192.252 85.157,210.498 85.348,210.935 84.985 C 211.362 84.631,211.272 36.402,210.844 36.173 C 210.534 36.007,193.361 35.957,192.295 36.119 M337.866 36.119 C 337.650 36.160,337.412 36.376,337.323 36.611 C 337.056 37.313,337.197 84.597,337.467 84.867 C 337.829 85.229,356.206 85.270,356.567 84.909 C 357.024 84.452,356.969 36.418,356.511 36.173 C 356.196 36.004,338.730 35.954,337.866 36.119 M43.797 41.412 C 43.997 42.159,44.842 42.833,45.577 42.833 C 45.795 42.833,45.833 43.173,45.833 45.130 C 45.833 47.455,45.998 48.153,46.551 48.174 C 46.661 48.178,47.098 48.497,47.523 48.882 L 48.296 49.583 48.366 52.039 C 48.449 54.939,48.583 55.213,50.010 55.402 L 50.833 55.511 50.833 57.809 C 50.833 61.175,51.257 62.274,52.674 62.585 L 53.167 62.693 53.167 64.941 C 53.167 67.343,53.290 67.833,53.895 67.833 C 54.141 67.833,54.469 68.071,54.813 68.500 L 55.349 69.167 56.819 69.167 C 58.386 69.167,59.015 68.907,59.251 68.162 C 59.323 67.937,59.504 67.833,59.827 67.833 C 60.458 67.833,60.500 67.666,60.500 65.153 L 60.500 63.000 61.385 63.000 C 62.857 63.000,62.908 62.909,62.971 60.180 C 63.022 57.980,63.046 57.833,63.351 57.833 C 64.985 57.833,65.382 56.996,65.469 53.375 L 65.538 50.500 66.250 50.500 C 67.668 50.500,67.718 50.373,67.802 46.523 L 67.876 43.167 68.696 43.167 C 69.845 43.167,70.333 42.672,70.333 41.508 L 70.333 40.667 75.375 40.698 C 78.148 40.716,79.967 40.756,79.417 40.788 C 78.038 40.868,78.000 40.944,78.000 43.603 L 78.000 45.809 77.093 45.923 C 75.737 46.092,75.635 46.276,75.537 48.706 C 75.452 50.819,75.388 50.993,74.701 50.997 C 73.576 51.005,73.000 52.657,73.000 55.881 L 73.000 58.127 71.978 58.201 C 70.557 58.303,70.500 58.411,70.500 61.017 L 70.500 63.137 69.834 63.250 C 68.479 63.479,68.005 64.537,68.002 67.343 L 68.000 68.936 67.272 69.718 C 66.871 70.148,66.436 70.500,66.305 70.500 C 65.760 70.500,65.667 70.883,65.667 73.117 L 65.667 75.333 64.958 75.336 C 63.542 75.340,63.167 75.725,63.167 77.172 L 63.167 77.793 62.164 77.866 C 60.918 77.956,60.789 78.085,60.699 79.331 L 60.627 80.333 56.897 80.333 L 53.167 80.333 53.167 79.345 C 53.167 78.050,52.950 77.833,51.655 77.833 L 50.667 77.833 50.667 76.783 C 50.667 75.473,50.528 75.333,49.229 75.333 L 48.192 75.333 48.138 72.088 C 48.074 68.311,48.044 68.235,46.533 68.056 L 45.667 67.954 45.664 65.935 C 45.662 63.525,45.591 63.196,45.047 63.059 C 44.820 63.002,44.309 62.640,43.912 62.254 L 43.190 61.552 43.120 59.901 C 42.999 57.055,42.664 56.299,41.408 56.039 L 40.750 55.902 40.667 53.497 C 40.572 50.765,40.520 50.674,39.042 50.669 L 38.333 50.667 38.333 48.528 C 38.333 44.925,37.920 43.854,36.424 43.574 L 35.857 43.467 35.803 42.067 L 35.750 40.666 39.674 40.666 L 43.598 40.667 43.797 41.412 M307.502 51.208 C 307.507 52.832,307.561 52.866,310.333 52.990 L 312.417 53.083 312.460 60.542 L 312.503 68.000 311.043 68.004 C 308.429 68.011,307.806 68.326,307.592 69.748 L 307.478 70.508 304.871 70.463 L 302.263 70.417 302.148 69.854 C 301.910 68.687,300.947 68.181,298.708 68.046 L 297.500 67.974 297.500 66.937 C 297.500 65.638,297.360 65.500,296.050 65.500 L 295.000 65.500 295.000 61.521 L 295.000 57.542 295.463 57.449 C 296.176 57.306,296.809 56.718,296.927 56.088 C 296.985 55.777,297.138 55.483,297.266 55.433 C 297.436 55.368,297.500 55.023,297.500 54.172 L 297.500 53.000 298.992 53.000 C 300.830 53.000,302.122 52.746,302.233 52.363 C 302.278 52.209,302.365 51.727,302.426 51.292 L 302.538 50.500 305.019 50.500 L 307.500 50.500 307.502 51.208 " stroke="none" fill="#ffffff" fill-rule="evenodd"></path><path id="path4" d="M38.500 0.667 L 38.500 1.333 36.292 1.336 C 33.634 1.339,33.608 1.352,33.500 2.702 L 33.417 3.750 31.178 3.797 C 28.523 3.852,28.500 3.865,28.500 5.270 L 28.500 6.333 26.343 6.333 C 23.813 6.333,23.667 6.422,23.667 7.954 L 23.667 8.833 22.617 8.833 C 21.304 8.833,21.167 8.970,21.167 10.283 L 21.167 11.333 19.492 11.333 C 17.213 11.333,16.333 11.885,16.333 13.316 C 16.333 13.588,16.176 13.662,15.395 13.760 C 14.213 13.908,13.908 14.210,13.762 15.375 C 13.648 16.293,13.647 16.294,12.979 16.401 C 11.955 16.564,11.574 17.057,11.437 18.397 C 11.310 19.637,10.227 21.065,9.314 21.194 C 8.942 21.246,8.913 21.328,8.868 22.458 L 8.819 23.667 7.753 23.667 C 6.409 23.667,6.434 23.621,6.333 26.250 L 6.250 28.417 5.256 28.468 C 3.908 28.537,3.833 28.627,3.833 30.187 C 3.833 31.220,3.782 31.500,3.593 31.500 C 2.913 31.500,1.833 32.535,1.833 33.186 C 1.833 33.280,1.721 33.470,1.583 33.607 C 1.386 33.805,1.333 34.328,1.333 36.095 L 1.333 38.333 0.667 38.333 L 0.000 38.333 0.000 56.833 L 0.000 75.333 0.667 75.333 L 1.333 75.333 1.346 77.625 C 1.367 81.660,1.591 82.291,3.065 82.457 L 3.833 82.543 3.835 83.730 C 3.839 86.117,4.396 87.233,5.687 87.439 L 6.333 87.543 6.333 88.670 C 6.333 89.972,6.364 90.000,7.821 90.000 L 8.782 90.000 8.887 91.834 C 9.033 94.385,9.309 94.825,10.769 94.831 L 11.288 94.833 11.376 95.932 C 11.483 97.266,11.574 97.368,12.744 97.465 L 13.667 97.541 13.667 98.437 C 13.667 99.655,14.012 100.000,15.230 100.000 L 16.127 100.000 16.199 100.996 C 16.287 102.223,16.247 102.185,17.565 102.291 L 18.648 102.377 18.761 103.282 C 18.922 104.569,19.203 104.715,21.688 104.804 L 23.667 104.874 23.667 105.904 C 23.667 107.178,23.815 107.333,25.033 107.333 C 25.977 107.333,26.000 107.344,26.001 107.792 C 26.004 109.527,26.495 109.831,29.292 109.832 L 31.000 109.833 31.001 110.292 C 31.004 112.039,31.488 112.331,34.375 112.332 L 36.167 112.333 36.167 112.917 L 36.167 113.500 57.000 113.500 L 77.833 113.500 77.833 112.917 L 77.833 112.333 79.885 112.333 C 82.415 112.333,82.530 112.271,82.633 110.856 L 82.707 109.833 84.853 109.833 C 87.456 109.833,87.667 109.717,87.667 108.275 L 87.667 107.383 89.462 107.289 C 91.960 107.157,92.425 106.886,92.537 105.500 L 92.583 104.917 93.628 104.817 C 94.914 104.694,94.887 104.723,94.970 103.410 L 95.039 102.333 96.006 102.333 C 97.460 102.333,97.500 102.299,97.500 101.066 L 97.500 100.000 98.550 100.000 C 99.863 100.000,100.000 99.863,100.000 98.550 L 100.000 97.500 100.988 97.500 C 102.278 97.500,102.500 97.281,102.500 96.008 L 102.500 95.040 103.502 94.968 C 104.762 94.876,104.885 94.747,104.970 93.416 C 105.028 92.496,105.085 92.333,105.349 92.333 C 106.830 92.333,107.333 91.545,107.333 89.225 L 107.333 87.667 108.218 87.667 C 109.682 87.667,109.741 87.565,109.805 84.930 L 109.859 82.667 110.763 82.667 C 112.228 82.667,112.333 82.472,112.333 79.766 L 112.333 77.531 113.174 77.416 C 114.611 77.218,114.833 76.395,114.833 71.263 L 114.833 67.709 115.491 67.604 C 117.266 67.320,117.327 66.968,117.324 57.083 C 117.321 47.295,117.234 46.724,115.687 46.273 L 114.917 46.049 114.833 42.399 L 114.750 38.750 114.049 37.727 C 113.598 37.069,113.171 36.643,112.853 36.532 L 112.359 36.360 112.304 33.998 C 112.240 31.220,112.119 31.000,110.648 31.000 L 109.833 31.000 109.824 29.208 C 109.809 26.452,109.580 26.060,107.958 26.017 L 107.333 26.000 107.333 24.833 L 107.333 23.667 106.167 23.667 L 105.000 23.667 104.996 22.208 C 104.989 19.607,104.672 18.972,103.276 18.763 L 102.539 18.652 102.467 17.657 C 102.378 16.421,102.246 16.289,101.021 16.200 L 100.037 16.129 99.966 15.146 C 99.877 13.919,99.746 13.789,98.502 13.699 L 97.500 13.627 97.498 12.938 C 97.493 11.706,97.234 11.429,95.996 11.333 L 94.917 11.250 94.866 10.375 C 94.799 9.210,94.447 9.027,92.001 8.887 L 90.167 8.782 90.167 7.758 C 90.167 6.458,90.033 6.333,88.633 6.333 C 87.530 6.333,87.500 6.322,87.500 5.908 C 87.500 4.561,86.592 3.994,84.240 3.874 L 82.539 3.787 82.395 2.935 C 82.172 1.627,81.681 1.445,78.125 1.361 L 75.333 1.295 75.333 0.647 L 75.333 0.000 56.917 0.000 L 38.500 0.000 38.500 0.667 M195.833 13.847 C 194.942 14.019,194.397 14.567,194.233 15.459 C 194.102 16.171,193.935 16.327,193.300 16.331 C 191.636 16.340,191.583 16.573,191.583 23.952 C 191.583 31.023,191.498 30.622,193.038 30.781 L 193.962 30.876 194.039 31.799 C 194.155 33.204,194.396 33.333,196.893 33.334 L 198.917 33.335 199.167 34.114 C 199.819 36.144,202.970 36.212,203.554 34.208 L 203.784 33.417 206.006 33.370 C 208.642 33.315,208.667 33.301,208.667 31.896 L 208.667 30.833 209.717 30.833 C 211.075 30.833,211.165 30.725,211.173 29.092 L 211.179 27.750 211.798 27.319 C 213.881 25.867,214.042 21.862,212.041 21.280 L 211.250 21.049 211.167 18.768 C 211.071 16.150,211.085 16.173,209.625 16.169 L 208.667 16.167 208.667 15.250 C 208.667 13.598,208.936 13.664,202.292 13.685 C 199.152 13.695,196.246 13.768,195.833 13.847 M258.367 13.867 C 258.254 13.980,258.167 14.521,258.167 15.109 L 258.167 16.152 256.958 16.201 C 255.878 16.245,255.745 16.287,255.700 16.599 C 255.671 16.800,255.380 17.100,255.012 17.306 C 254.655 17.507,254.283 17.885,254.167 18.166 C 254.053 18.441,253.859 18.667,253.736 18.667 C 253.247 18.667,253.167 19.353,253.167 23.517 C 253.167 29.584,253.309 30.149,254.945 30.566 C 255.709 30.761,255.755 30.804,255.842 31.427 C 256.046 32.871,256.547 33.151,259.229 33.315 L 260.896 33.417 261.042 33.980 C 261.408 35.398,262.009 35.650,264.612 35.482 C 266.440 35.364,266.899 35.127,267.412 34.034 L 267.741 33.333 268.959 33.333 C 269.871 33.333,270.201 33.272,270.270 33.091 C 270.321 32.958,270.687 32.692,271.083 32.500 C 271.619 32.241,271.868 31.989,272.058 31.514 C 272.199 31.164,272.430 30.832,272.573 30.777 C 272.774 30.700,272.833 30.415,272.833 29.525 L 272.833 28.373 273.856 28.299 C 275.396 28.188,275.357 28.319,275.299 23.464 C 275.243 18.735,275.287 18.873,273.776 18.717 L 272.833 18.620 272.833 17.593 C 272.833 16.306,272.692 16.167,271.383 16.167 L 270.333 16.167 270.333 15.179 C 270.333 13.582,270.676 13.667,264.188 13.667 C 260.038 13.667,258.514 13.719,258.367 13.867 M312.704 13.863 C 312.547 14.019,312.493 16.896,312.468 26.242 C 312.451 32.938,312.411 37.967,312.379 37.417 C 312.299 36.038,312.224 36.000,309.551 36.000 L 307.333 36.000 307.333 35.578 C 307.333 34.735,306.918 34.083,306.231 33.848 C 305.384 33.556,297.199 33.387,296.145 33.638 C 294.322 34.074,294.060 34.176,293.700 34.593 C 293.490 34.837,293.276 35.243,293.226 35.496 L 293.134 35.955 290.789 36.039 C 288.124 36.135,288.113 36.140,287.932 37.503 L 287.822 38.333 286.839 38.333 C 285.551 38.333,285.333 38.552,285.333 39.845 L 285.333 40.833 284.345 40.833 C 283.056 40.833,282.833 41.053,282.833 42.322 L 282.833 43.287 281.890 43.384 C 280.486 43.529,280.426 43.638,280.362 46.172 L 280.307 48.333 279.862 48.335 C 277.825 48.344,277.985 47.262,277.980 61.058 C 277.976 73.666,277.880 72.833,279.339 72.833 L 280.333 72.833 280.333 75.077 C 280.333 77.671,280.331 77.667,281.906 77.667 L 282.833 77.667 282.833 78.717 C 282.833 80.030,282.970 80.167,284.283 80.167 L 285.333 80.167 285.333 81.217 C 285.333 82.526,285.472 82.667,286.764 82.667 L 287.795 82.667 287.907 83.566 C 288.082 84.963,288.285 85.072,290.843 85.142 L 292.985 85.200 293.170 85.761 C 293.720 87.427,294.967 87.704,301.600 87.636 C 307.533 87.576,307.291 87.636,307.367 86.194 L 307.417 85.250 309.656 85.203 C 312.310 85.148,312.333 85.135,312.333 83.730 C 312.333 82.491,312.583 82.308,312.712 83.453 C 312.906 85.179,313.122 85.211,323.953 85.136 C 330.924 85.087,331.511 85.061,331.786 84.786 C 332.250 84.322,332.249 14.511,331.786 14.048 C 331.405 13.666,313.078 13.489,312.704 13.863 M341.004 13.834 C 340.264 14.012,339.901 14.466,339.763 15.390 L 339.652 16.126 338.820 16.236 C 337.137 16.459,337.131 16.487,337.199 24.367 C 337.257 31.088,337.168 30.693,338.646 30.800 L 339.629 30.871 339.700 31.854 C 339.800 33.232,339.818 33.241,342.508 33.304 L 344.833 33.359 344.833 33.907 C 344.833 36.098,348.748 36.264,349.074 34.086 L 349.187 33.333 351.498 33.333 C 354.264 33.333,354.333 33.297,354.333 31.821 L 354.333 30.833 355.292 30.831 C 356.804 30.827,356.738 30.983,356.833 27.131 C 356.953 22.290,356.802 16.734,356.544 16.477 C 356.431 16.364,355.896 16.240,355.355 16.200 L 354.372 16.129 354.296 15.223 C 354.168 13.673,354.528 13.754,347.619 13.722 C 344.299 13.707,341.323 13.758,341.004 13.834 M242.043 33.656 C 241.226 33.860,241.032 34.106,240.908 35.095 L 240.795 36.000 238.659 36.000 C 236.114 36.000,236.011 36.056,235.977 37.470 L 235.954 38.417 235.836 37.372 C 235.770 36.798,235.662 36.273,235.595 36.206 C 235.390 36.001,216.880 35.963,216.499 36.167 C 216.032 36.417,215.967 84.443,216.433 84.909 C 216.794 85.270,235.171 85.229,235.533 84.867 C 235.707 84.693,235.759 81.762,235.794 70.075 L 235.839 55.500 236.824 55.500 C 238.116 55.500,238.333 55.282,238.333 53.988 L 238.333 53.000 240.875 52.965 C 242.273 52.945,245.254 52.954,247.500 52.985 C 251.063 53.034,252.756 52.922,253.032 52.619 C 253.050 52.599,253.109 49.921,253.164 46.667 C 253.222 43.180,253.277 49.462,253.296 61.958 C 253.334 86.399,253.171 84.330,255.101 84.916 C 256.186 85.245,272.308 85.292,272.633 84.967 C 272.787 84.813,272.833 79.145,272.833 60.470 L 272.833 36.173 272.455 36.078 C 272.247 36.026,268.215 36.006,263.496 36.033 C 252.920 36.095,253.578 35.888,253.330 39.229 L 253.217 40.750 253.192 38.633 C 253.168 36.649,252.931 35.138,252.523 34.376 C 252.163 33.703,244.081 33.148,242.043 33.656 M376.498 33.669 C 374.791 33.934,374.339 34.361,374.334 35.708 C 374.333 35.971,374.120 36.000,372.208 36.002 C 369.291 36.005,369.359 35.977,369.299 37.226 L 369.250 38.250 367.222 38.336 C 364.801 38.440,364.578 38.565,364.409 39.917 L 364.299 40.801 363.525 40.917 C 362.034 41.140,361.836 41.535,361.834 44.276 L 361.833 45.969 360.929 46.253 C 359.588 46.675,359.583 46.697,359.583 52.287 C 359.583 57.677,359.569 57.621,361.049 57.788 L 361.802 57.873 361.859 60.097 C 361.926 62.698,361.983 62.804,363.378 62.948 L 364.308 63.044 364.415 63.822 C 364.594 65.124,365.041 65.331,367.687 65.332 L 369.290 65.333 369.399 66.153 C 369.615 67.779,369.486 67.738,374.610 67.833 L 379.083 67.917 379.171 68.790 C 379.307 70.145,379.468 70.232,382.047 70.346 C 383.657 70.417,382.872 70.451,379.132 70.471 L 374.015 70.500 373.966 69.292 L 373.917 68.083 370.450 68.038 C 367.528 68.000,366.943 68.033,366.730 68.247 C 366.590 68.386,366.350 68.500,366.196 68.501 C 365.806 68.502,364.833 69.451,364.833 69.830 C 364.833 70.002,364.724 70.252,364.591 70.385 C 364.439 70.537,364.331 71.051,364.300 71.772 L 364.250 72.917 363.083 73.000 L 361.917 73.083 361.868 74.201 L 361.818 75.318 360.701 75.368 L 359.583 75.417 359.538 78.679 C 359.482 82.778,359.318 82.540,362.259 82.638 L 364.333 82.707 364.333 83.603 C 364.333 85.068,364.521 85.167,367.316 85.167 C 369.762 85.167,369.833 85.190,369.833 85.985 C 369.833 87.328,371.107 87.556,378.986 87.624 C 388.140 87.703,388.418 87.657,388.611 86.032 L 388.713 85.167 391.148 85.161 C 393.025 85.157,393.658 85.100,393.907 84.911 C 394.085 84.777,394.352 84.667,394.501 84.667 C 394.868 84.667,395.618 83.857,395.839 83.222 C 396.014 82.719,396.055 82.701,397.174 82.638 C 398.578 82.559,398.709 82.441,398.801 81.169 L 398.873 80.167 399.437 80.167 L 400.000 80.167 400.000 69.273 L 400.000 58.380 399.125 58.275 C 398.644 58.217,397.819 58.169,397.292 58.168 L 396.333 58.167 396.333 57.104 C 396.333 55.698,396.310 55.685,393.656 55.630 L 391.417 55.583 391.332 54.632 C 391.206 53.216,391.324 53.257,387.189 53.200 L 383.561 53.149 383.353 52.575 C 383.136 51.974,382.239 51.167,381.790 51.167 C 381.646 51.167,381.498 51.079,381.463 50.971 C 381.426 50.860,380.864 50.727,380.157 50.662 C 379.307 50.585,380.111 50.541,382.708 50.524 L 386.500 50.500 386.500 51.550 C 386.500 53.037,386.411 53.000,390.044 53.000 C 393.866 53.000,393.833 53.012,393.833 51.577 L 393.833 50.500 394.982 50.500 C 396.301 50.500,396.333 50.466,396.333 49.070 L 396.333 48.167 397.321 48.167 C 398.616 48.167,398.833 47.950,398.833 46.655 L 398.833 45.667 399.417 45.667 L 400.000 45.667 400.000 42.107 L 400.000 38.547 398.976 38.440 C 398.412 38.382,397.598 38.333,397.166 38.333 L 396.380 38.333 396.283 37.393 C 396.144 36.047,396.273 36.090,392.242 36.027 L 388.667 35.971 388.667 35.507 C 388.667 34.467,388.477 34.025,387.939 33.813 C 387.310 33.565,377.929 33.447,376.498 33.669 M134.958 36.180 C 134.498 36.448,134.517 42.678,134.979 43.119 C 135.151 43.282,135.342 43.579,135.403 43.777 C 135.512 44.134,136.334 44.850,136.853 45.040 C 137.072 45.121,137.138 45.481,137.202 46.945 C 137.317 49.537,137.865 50.500,139.228 50.500 L 139.640 50.500 139.695 52.661 C 139.760 55.210,139.835 55.348,141.225 55.463 L 142.134 55.539 142.211 58.311 C 142.318 62.123,142.637 62.833,144.245 62.833 L 144.667 62.833 144.669 64.542 C 144.672 67.528,144.843 67.829,146.542 67.832 L 147.000 67.833 147.000 69.963 C 147.000 72.616,147.090 72.795,148.462 72.867 L 149.417 72.917 149.520 75.750 C 149.660 79.589,149.850 80.000,151.484 80.000 L 152.000 80.000 152.000 80.968 C 152.000 82.316,152.221 82.562,153.528 82.666 C 154.557 82.748,154.585 82.762,154.632 83.250 C 154.706 84.014,155.008 84.658,155.398 84.881 C 156.001 85.227,168.970 85.273,169.101 84.930 C 169.157 84.785,169.344 84.667,169.518 84.667 C 169.936 84.667,171.167 83.423,171.167 83.000 C 171.167 82.719,171.278 82.667,171.876 82.667 C 173.844 82.667,173.994 82.463,173.997 79.792 L 174.000 77.667 174.974 77.667 C 176.423 77.667,176.500 77.529,176.500 74.958 L 176.500 72.859 177.357 72.721 C 178.696 72.506,178.886 72.139,178.970 69.598 L 179.039 67.534 179.519 67.438 C 180.961 67.149,181.500 65.837,181.500 62.610 L 181.500 60.540 182.502 60.468 C 183.900 60.366,183.908 60.351,183.971 57.678 L 184.025 55.372 184.670 55.269 C 186.162 55.030,186.500 54.129,186.500 50.394 L 186.500 48.167 187.301 48.167 C 188.671 48.167,188.742 48.038,188.804 45.450 L 188.858 43.206 189.771 43.130 C 191.227 43.009,191.243 42.973,191.295 39.536 C 191.321 37.801,191.272 36.480,191.176 36.333 C 191.034 36.116,189.767 36.083,181.464 36.083 L 171.917 36.083 171.867 37.208 L 171.818 38.333 171.011 38.333 C 169.468 38.333,169.430 38.425,169.333 42.360 L 169.250 45.750 168.295 45.800 C 166.923 45.872,166.833 46.050,166.833 48.704 L 166.833 50.833 166.325 50.833 C 164.776 50.833,164.477 51.516,164.374 55.292 L 164.296 58.167 163.606 58.174 C 163.227 58.178,162.643 58.279,162.309 58.398 L 161.701 58.616 161.642 56.052 C 161.575 53.137,161.593 53.173,160.226 53.169 L 159.369 53.167 159.309 49.902 C 159.241 46.151,159.237 46.141,157.676 45.934 L 156.833 45.822 156.833 43.586 C 156.833 40.009,156.395 38.850,154.942 38.577 L 154.333 38.463 154.333 37.404 C 154.333 36.528,154.278 36.315,154.011 36.173 C 153.571 35.937,135.363 35.944,134.958 36.180 M192.295 36.119 C 191.483 36.242,191.493 35.923,191.539 60.979 C 191.581 83.289,191.599 84.503,191.881 84.786 C 192.252 85.157,210.498 85.348,210.935 84.985 C 211.362 84.631,211.272 36.402,210.844 36.173 C 210.534 36.007,193.361 35.957,192.295 36.119 M337.866 36.119 C 337.650 36.160,337.412 36.376,337.323 36.611 C 337.056 37.313,337.197 84.597,337.467 84.867 C 337.829 85.229,356.206 85.270,356.567 84.909 C 357.024 84.452,356.969 36.418,356.511 36.173 C 356.196 36.004,338.730 35.954,337.866 36.119 M43.797 41.412 C 43.997 42.159,44.842 42.833,45.577 42.833 C 45.795 42.833,45.833 43.173,45.833 45.130 C 45.833 47.455,45.998 48.153,46.551 48.174 C 46.661 48.178,47.098 48.497,47.523 48.882 L 48.296 49.583 48.366 52.039 C 48.449 54.939,48.583 55.213,50.010 55.402 L 50.833 55.511 50.833 57.809 C 50.833 61.175,51.257 62.274,52.674 62.585 L 53.167 62.693 53.167 64.941 C 53.167 67.343,53.290 67.833,53.895 67.833 C 54.141 67.833,54.469 68.071,54.813 68.500 L 55.349 69.167 56.819 69.167 C 58.386 69.167,59.015 68.907,59.251 68.162 C 59.323 67.937,59.504 67.833,59.827 67.833 C 60.458 67.833,60.500 67.666,60.500 65.153 L 60.500 63.000 61.385 63.000 C 62.857 63.000,62.908 62.909,62.971 60.180 C 63.022 57.980,63.046 57.833,63.351 57.833 C 64.985 57.833,65.382 56.996,65.469 53.375 L 65.538 50.500 66.250 50.500 C 67.668 50.500,67.718 50.373,67.802 46.523 L 67.876 43.167 68.696 43.167 C 69.845 43.167,70.333 42.672,70.333 41.508 L 70.333 40.667 75.375 40.698 C 78.148 40.716,79.967 40.756,79.417 40.788 C 78.038 40.868,78.000 40.944,78.000 43.603 L 78.000 45.809 77.093 45.923 C 75.737 46.092,75.635 46.276,75.537 48.706 C 75.452 50.819,75.388 50.993,74.701 50.997 C 73.576 51.005,73.000 52.657,73.000 55.881 L 73.000 58.127 71.978 58.201 C 70.557 58.303,70.500 58.411,70.500 61.017 L 70.500 63.137 69.834 63.250 C 68.479 63.479,68.005 64.537,68.002 67.343 L 68.000 68.936 67.272 69.718 C 66.871 70.148,66.436 70.500,66.305 70.500 C 65.760 70.500,65.667 70.883,65.667 73.117 L 65.667 75.333 64.958 75.336 C 63.542 75.340,63.167 75.725,63.167 77.172 L 63.167 77.793 62.164 77.866 C 60.918 77.956,60.789 78.085,60.699 79.331 L 60.627 80.333 56.897 80.333 L 53.167 80.333 53.167 79.345 C 53.167 78.050,52.950 77.833,51.655 77.833 L 50.667 77.833 50.667 76.783 C 50.667 75.473,50.528 75.333,49.229 75.333 L 48.192 75.333 48.138 72.088 C 48.074 68.311,48.044 68.235,46.533 68.056 L 45.667 67.954 45.664 65.935 C 45.662 63.525,45.591 63.196,45.047 63.059 C 44.820 63.002,44.309 62.640,43.912 62.254 L 43.190 61.552 43.120 59.901 C 42.999 57.055,42.664 56.299,41.408 56.039 L 40.750 55.902 40.667 53.497 C 40.572 50.765,40.520 50.674,39.042 50.669 L 38.333 50.667 38.333 48.528 C 38.333 44.925,37.920 43.854,36.424 43.574 L 35.857 43.467 35.803 42.067 L 35.750 40.666 39.674 40.666 L 43.598 40.667 43.797 41.412 M307.502 51.208 C 307.507 52.832,307.561 52.866,310.333 52.990 L 312.417 53.083 312.460 60.542 L 312.503 68.000 311.043 68.004 C 308.429 68.011,307.806 68.326,307.592 69.748 L 307.478 70.508 304.871 70.463 L 302.263 70.417 302.148 69.854 C 301.910 68.687,300.947 68.181,298.708 68.046 L 297.500 67.974 297.500 66.937 C 297.500 65.638,297.360 65.500,296.050 65.500 L 295.000 65.500 295.000 61.521 L 295.000 57.542 295.463 57.449 C 296.176 57.306,296.809 56.718,296.927 56.088 C 296.985 55.777,297.138 55.483,297.266 55.433 C 297.436 55.368,297.500 55.023,297.500 54.172 L 297.500 53.000 298.992 53.000 C 300.830 53.000,302.122 52.746,302.233 52.363 C 302.278 52.209,302.365 51.727,302.426 51.292 L 302.538 50.500 305.019 50.500 L 307.500 50.500 307.502 51.208 " stroke="none" fill="#ffffff" fill-rule="evenodd"></path></g></svg>